<svg id="Calque_1" data-name="Calque 1" xmlns="http://www.w3.org/2000/svg" width="19.23mm" height="7.92mm" viewBox="0 0 54.5 22.45">
  <path d="M54.5,8.6,47.67,0H17.6L14.55,3.84H7l.15.62a1.32,1.32,0,0,1-.34,1.27,1.37,1.37,0,0,1-1.88,0L4.61,5.4,0,9.29v3.87l4.61,3.89.32-.33a1.36,1.36,0,0,1,1.88,0A1.29,1.29,0,0,1,7.15,18L7,18.61h7.55l3.05,3.84H47.67l6.83-8.6ZM53.37,9v1.07l-7.3-8.93h1.06Zm0,2.45L45.3,21.33H20.16L11.91,11.22,20.17,1.13H45.3L53.37,11ZM18.14,1.13h1.25L11.9,10.3V9l3.73-4.7Zm-10,16.48A2.28,2.28,0,0,0,7.52,16a2.39,2.39,0,0,0-2.94-.3L1,12.7V9.76l3.58-3a2.39,2.39,0,0,0,2.94-.3A2.3,2.3,0,0,0,8.2,4.84l5.65-.12h0L10.77,8.6v5.25l3,3.76Zm3.71-4.15V12.15l7.49,9.18H18.15Zm35.23,7.87H46.08l7.29-8.94v1.07Z" style="fill: #1d1d1b"/>
</svg>
