<svg id="Calque_1" data-name="Calque 1" xmlns="http://www.w3.org/2000/svg" xmlns:xlink="http://www.w3.org/1999/xlink" width="207.24mm" height="34.91mm" viewBox="0 0 587.44 98.96">
  <defs>
    <clipPath id="clip-path">
      <rect x="102.72" y="12.33" width="144" height="15.48" style="fill: none"/>
    </clipPath>
  </defs>
  <path d="M337.5,31.18l22.28-1.67L332.3,27.45l42.05-3.14-37.45-2.8,51.88-3.88L300.44,11l23.74-1.78L280.84,6l-38.5,2.88L225,6.64l42.49-3.18-34-2.55L209.73,2.69,182.18.63,156.43,2.55l26.16,2L153.76,6.67,124.94,4.51l16.71-1.25-20-1.49L57.87,6.54,80.48,8.23,8.77,13.59,51,16.75,28.72,18.42l27.48,2L14.15,23.61l37.45,2.8L-.28,30.29,71,35.62,38.37,38.07l34.46,2.57L81.74,40l25.92,1.93L146.16,39l17.3,2.26-44.87,3.35,61.6,4.61,13.47-1-24.25-1.81L204,43.84l24.27,1.81,15.89-1.19,22.62,1.69,63.82-4.77L308,39.69l71.71-5.36Zm-114.3,17,23.26,1.74,23.25-1.74-23.25-1.74ZM84,41.65l23.26,1.74L84,45.13,60.75,43.39Z" style="fill: #e3e3e3"/>
  <path d="M388.64,83.4l18.1-1.35-22.32-1.67,34.16-2.55-30.42-2.28L430.3,72.4,358.54,67l19.28-1.45L342.62,63,311.34,65.3l-14.07-1.83,34.52-2.58-27.66-2.07-19.28,1.44-22.38-1.67-20.91,1.56,21.25,1.59L239.39,63.5,216,61.74l13.57-1-16.21-1.21L161.5,63.39l18.37,1.38-58.25,4.35,34.3,2.56L137.82,73l22.32,1.67L126,77.26l30.42,2.28-42.14,3.15L172.17,87l-26.51,2,28,2.09,7.24-.54,21.05,1.58,31.28-2.34,14.05,1.83-36.45,2.72,50,3.74,10.94-.82-19.7-1.47,28.13-2.1,19.71,1.47,12.91-1,18.37,1.37,51.84-3.87-18.37-1.38L422.94,86ZM295.8,97.2l18.89,1.42,18.89-1.42-18.89-1.41ZM182.73,91.91l18.89,1.41-18.89,1.42-18.89-1.42Z" style="fill: #e3e3e3"/>
  <path d="M552.8,37.4l14.93-1.12-18.41-1.37,28.17-2.11-25.08-1.88,34.75-2.59L528,23.9l15.9-1.19-29-2.17-25.8,1.93L477.45,21l28.47-2.13-22.82-1.7-15.89,1.18-18.46-1.38-17.25,1.3L449,19.54,429.71,21,410.4,19.54l11.2-.84-13.38-1-42.75,3.2L380.62,22l-48,3.59,28.29,2.12-14.93,1.11,18.41,1.38-28.17,2.1,25.09,1.88-34.76,2.6,47.76,3.57L352.41,42l23.08,1.72,6-.44,17.36,1.29,25.8-1.93,11.59,1.51-30.06,2.25,41.27,3.09,9-.68-16.25-1.21,23.2-1.74,16.26,1.22,10.64-.8,15.16,1.14,42.75-3.2-15.14-1.13,48-3.59ZM476.23,48.78,491.81,50l15.58-1.17-15.58-1.16ZM383,44.42l15.58,1.16L383,46.75,367.4,45.58Z" style="fill: #e3e3e3"/>
  <path d="M78.22,4.63A22.83,22.83,0,0,0,78.44,11,50.35,50.35,0,0,0,74.15,8.2,10,10,0,0,1,71,4.55c-.48-.85-.76-1.48-.76-1.48a6.6,6.6,0,0,0-1.1,7.27,14.23,14.23,0,0,0-7.88.19c9.18,6,4.3,6.5-1,9s-5.68,5.63-5.68,5.63c6.33-2.08,8.85.58,8.85.58C60,29,63.05,34.1,63.05,34.1c3.31,6.34,11.51,9,18.85,10.15a70.1,70.1,0,0,0,13.7.67l-16.72,5.2-15,3.79S49,52.31,43.47,39.69s4.09-22.57,3.13-23.22-2.07.76-2.19.91C48.57,5.47,61.1,5.6,61.6,4.34S59.13,3,59.13,3C71.8-1.18,78.22,4.63,78.22,4.63" style="fill: #1d1d1b"/>
  <path d="M565.41,38.68V76.82c14.57-.09,16.46,0,19-3.23V36.09c-4.66,2.47-9.48,2.55-19,2.59" style="fill: #fff"/>
  <path d="M565.41,38.68V76.82c14.57-.09,16.46,0,19-3.23V36.09C579.7,38.56,574.88,38.64,565.41,38.68Z" style="fill: none;stroke: #1d1d1b;stroke-miterlimit: 10;stroke-width: 1.375px"/>
  <path d="M565.41,73.7c19.6,2.24,17.93-3.57,18.8-3.75M564.8,41.51c16.24,0,17.69-1.17,19.16-2.3" style="fill: none;stroke: #1d1d1b;stroke-miterlimit: 10;stroke-width: 0.75px"/>
  <path d="M188.78,69.62a.05.05,0,0,1,0,0,1.1,1.1,0,0,0,.15.9c.21.32,5.42,7.94,12.22,7.94a9.26,9.26,0,0,0,4.47-1.18c.59-.37,1.16-.75,1.65-1.09a54.82,54.82,0,0,0,8.32-6.61Z" style="fill: #fff"/>
  <polygon points="21.57 45.39 21.57 82.89 57.07 78.25 57.07 40.75 21.57 45.39" style="fill: #fff"/>
  <polygon points="21.57 45.39 21.57 82.89 57.07 78.25 57.07 40.75 21.57 45.39" style="fill: none;stroke: #1d1d1b;stroke-miterlimit: 10;stroke-width: 1.375px"/>
  <path d="M22.35,47.9l34.72-4.42M22.35,80.11l34.72-4.93" style="fill: none;stroke: #1d1d1b;stroke-miterlimit: 10;stroke-width: 0.75px"/>
  <polygon points="57.07 40.75 32.85 37.17 32.85 74.67 57.07 78.25 57.07 40.75" style="fill: #cbcbce"/>
  <polygon points="57.07 40.75 32.85 37.17 32.85 74.67 57.07 78.25 57.07 40.75" style="fill: none;stroke: #1d1d1b;stroke-miterlimit: 10;stroke-width: 1.375px"/>
  <path d="M251.89,74.67c-61.75,11.25-157.29-11.25-219,0V37.17c61.75-11.25,157.29,11.25,219,0Z" style="fill: #fff"/>
  <path d="M251.89,74.67c-61.75,11.25-157.29-11.25-219,0V37.17c61.75-11.25,157.29,11.25,219,0Z" style="fill: none;stroke: #1d1d1b;stroke-miterlimit: 10;stroke-width: 1.375px"/>
  <path d="M251.89,40.09s-19.87,8-114-.29C71.34,33.91,38.13,39.07,33,40M252.77,71.05s-20.5,8.66-114.67.33c-66.51-5.89-99.72-.73-104.85.17" style="fill: none;stroke: #1d1d1b;stroke-miterlimit: 10;stroke-width: 0.75px"/>
  <rect x="251.8" y="25.63" width="313.89" height="60.64" style="fill: #fff"/>
  <rect x="251.8" y="25.63" width="313.89" height="60.64" style="fill: none;stroke: #1d1d1b;stroke-miterlimit: 10;stroke-width: 1.25px"/>
  <path d="M249.7,19.33V92.58A11.68,11.68,0,0,1,251.79,89V22.89a11.79,11.79,0,0,1-2.1-3.56" style="fill: #fff"/>
  <path d="M249.7,19.33V92.58A11.68,11.68,0,0,1,251.79,89V22.89A11.79,11.79,0,0,1,249.7,19.33Z" style="fill: none;stroke: #1d1d1b;stroke-miterlimit: 10;stroke-width: 1.25px"/>
  <path d="M251.2,78.25s.82,10.34,6.5,10.34h17.05s5.55-2.45,15.88-2.45M251.2,33.39s.82-10.34,6.51-10.34h17s5.55,2.45,15.88,2.45" style="fill: none;stroke: #1d1d1b;stroke-miterlimit: 10;stroke-width: 1.25px"/>
  <path d="M567.79,19.33V92.58a11.79,11.79,0,0,0-2.1-3.56V22.89a11.79,11.79,0,0,0,2.1-3.56" style="fill: #fff"/>
  <path d="M567.79,19.33V92.58a11.79,11.79,0,0,0-2.1-3.56V22.89A11.79,11.79,0,0,0,567.79,19.33Z" style="fill: none;stroke: #1d1d1b;stroke-miterlimit: 10;stroke-width: 1.25px"/>
  <path d="M565.69,78.39s-1.07,10.33-8.4,10.33h-22s-7.17-2.44-20.5-2.44m50.9-52.76s-1.07-10.33-8.4-10.33h-22s-7.17,2.44-20.5,2.44" style="fill: none;stroke: #1d1d1b;stroke-miterlimit: 10;stroke-width: 1.25px"/>
  <path d="M273.69,86.28a103.91,103.91,0,0,1,17.21-1.93H526.58a103.67,103.67,0,0,1,17.21,1.93m0-60.64a104.76,104.76,0,0,1-17.21,1.92H290.9a105,105,0,0,1-17.21-1.92" style="fill: none;stroke: #1d1d1b;stroke-miterlimit: 10;stroke-width: 0.75px"/>
  <path d="M90.88,20.48a7.63,7.63,0,0,1,4.29,4.66c-2.85-.08-3.69-2.28-4.29-4.66" style="fill: #fff"/>
  <path d="M247.19,79.7c-.64-3.47-3.09-9.12-7.83-12.11-3.92-2.46-7.34-1.92-7.35-3.15,0-1.55,4.36-1.07,4.36-1.07-4.74-2.71-11.53.61-12.5-.94-.57-.94,3.16-2.24,3.16-2.24C221.25,60,214.44,63,211.7,65.65c6.89-2.31,16.6-1,21.05,2.83a20.4,20.4,0,0,0-6-2.19c-7.82-1.57-16.52.76-21.76,2.94a50.78,50.78,0,0,0-10.43,5c-3.9,2.27-11.11,4.38-16,2.31h0s7.65,12.75,17.06,8.32c.69-.39,1.35-.78,2-1.17a64.25,64.25,0,0,0,10.31-7.43,52.38,52.38,0,0,1,14-6.88,10.49,10.49,0,0,1,4.43-.33c3.72.51,7,2.89,8,5.74,2.87-.5,10.14,1.9,12.88,4.94" style="fill: #1d1d1b"/>
  <path d="M84.25,33.94c-.79-4.26-6.67-5-9.7-3a11.7,11.7,0,0,1,6.28-6.19,31.28,31.28,0,0,0-4.48-1.29c1.94-1.48,6.71-2.6,9.13-2.39a9.61,9.61,0,0,0-1.44-.3L84.5,18c-.27-2.32-2.37-5-4.87-6.58-1.24-3.55,0-10,1.68-11.73-.86,9.29,12.26,15,14.81,21.88-1.44-5.85-7.51-9.71-10.35-13.27A9.44,9.44,0,0,1,86.83.75C86.33,7,92.91,12.06,96.4,15.66c4.12,4.23,5.21,7.9,4.54,10.85a2.52,2.52,0,0,1,1.91,2.74A5.16,5.16,0,0,0,106,26.52c.53,4.66-2.35,9.47-5.44,10.84a4.25,4.25,0,0,0-.46-3.92c-1.32-1.71-5.21-1.85-6.53-1.8,0,0,1.69-2.34,1.08-3.57-.74-1.53-8.38-1.1-11.83,0a14.72,14.72,0,0,1,4.85.73c-.56.78-2.06,4.09-1.08,5.13.83.89,2-.43,2.15-.6-.11.32-1.26,3.66-.47,4.5s2.67.33,2.67.33c-1.23,2.84-5.72,4.69-8.82,4.59a6.56,6.56,0,0,0,3.32-3.4,8.67,8.67,0,0,1-3.76.37c1-.38,3.1-2.89,2.57-5.81m10.92-8.8a7.63,7.63,0,0,0-4.29-4.66c.6,2.38,1.44,4.58,4.29,4.66" style="fill: #1d1d1b"/>
  <path d="M67.89,16.48c.51-1.8-3-5-4.31-5.63a20.64,20.64,0,0,1,7.37,1,8.68,8.68,0,0,1-.75-7.13C72.69,11.2,82.28,12.54,84.5,18L84,20.74c-3.79-.49-9.38.64-12.2,3.77a22.42,22.42,0,0,1,4.49.93c-4.27.64-10.15,4.4-11.91,6.21.52-2.44,1.27-4.49.74-6-.75-2.1-3.25-3.06-8.3-2.17,3.49-3.29,10.5-5.18,11-7" style="fill: #1d1d1b"/>
  <path d="M39.86,33l1,2.22c-1.37.23-2.91,5.64-2.91,5.64-3.49-2-.55-8.48-.55-8.48Z" style="fill: #1d1d1b"/>
  <path d="M32.24,32.08A12.49,12.49,0,0,1,35,30.53l1.59,1.41-.82.25s-1.53,5-.91,7.07l1,2.9s-3.26-.65-3.76-1.9c0,0-1-5.63.12-8.18" style="fill: #1d1d1b"/>
  <path d="M30.4,34.2s.21,6.42.87,7l2.42,1,.07,2.19s-4.32-1.37-4.68-3-.64-5.75-.64-5.75a4,4,0,0,1,2-1.44" style="fill: #1d1d1b"/>
  <path d="M246.72,18.57a2.41,2.41,0,1,1-4.82,0,2.41,2.41,0,1,1,4.82,0m-2.41,1.93a1.77,1.77,0,0,0,1.82-1.93,1.83,1.83,0,1,0-3.65,0,1.78,1.78,0,0,0,1.83,1.93m.58-1.59c.91-.21.72-1.58-.38-1.58h-1.18v2.48H244V19h.23l.59.77h.7v-.15Zm-.38-1a.29.29,0,1,1,0,.57H244v-.57Z" style="fill: #1d1d1b"/>
  <g style="clip-path: url(#clip-path)">
    <path d="M185,24.59a2,2,0,0,1-2.42,1.85,1.75,1.75,0,0,0,1.54.32,2.5,2.5,0,0,1-2.49.76,2.1,2.1,0,0,1-1.5-1.87,1.18,1.18,0,0,0,0,1.59A1.56,1.56,0,0,1,179,26c-.09-.64.27-1.37-.4-2-.4-.35-1-.85-1.4-1.16-.82-.64-.51-1.12-.7-1.46s-.48-.41-.69-.65a.76.76,0,0,1-.09-.81.59.59,0,0,0,.45.6c.3.1.56,0,.82.16s.17.67.39.84.71-.05,1.14.3,1.41,1.16,1.83,1.5a.76.76,0,0,0,1.27-.79,1.39,1.39,0,0,1,.21,2.16c.6.14,1.68-.13,1.68-1a1.06,1.06,0,0,0-.84-1A2,2,0,0,1,185,24.59M172.06,18c.07-.3-.51-.8-.73-.89a3.39,3.39,0,0,1,1.2.12,1.42,1.42,0,0,1-.15-1.16c.43,1.05,2,1.22,2.38,2.09a1.65,1.65,0,0,0-.82-1,2.48,2.48,0,0,1,.21-1.92c-.09,1.52,2.07,2.38,2.52,3.48-.27-.94-1.27-1.54-1.75-2.1a1.54,1.54,0,0,1,.13-1.23c-.05,1,1,1.81,1.63,2.37a2,2,0,0,1,.79,1.74.4.4,0,0,1,.32.43.83.83,0,0,0,.5-.45,1.81,1.81,0,0,1-.83,1.78.67.67,0,0,0-.09-.63c-.22-.27-.85-.28-1.07-.26,0,0,.26-.39.16-.59s-1.37-.13-1.92.07a2.52,2.52,0,0,1,.79.09c-.09.13-.31.68-.15.84s.35-.11.35-.11-.2.6-.06.73.44,0,.44,0a1.66,1.66,0,0,1-1.41.79,1,1,0,0,0,.52-.57,1.27,1.27,0,0,1-.61.08.91.91,0,0,0,.39-.95c-.15-.69-1.11-.78-1.59-.44a1.88,1.88,0,0,1,1-1,5.49,5.49,0,0,0-.73-.19,2.78,2.78,0,0,1,1.47-.43,2.5,2.5,0,0,0-2.2.63,3.73,3.73,0,0,1,.73.13,4.42,4.42,0,0,0-1.9,1.07,2,2,0,0,0,.09-1c-.13-.33-.54-.48-1.35-.31.55-.55,1.67-.89,1.75-1.19m4.72,1.46-.07-.25a1.44,1.44,0,0,0-.84-.85l-.34-.13.1.35c.08.31.25.88.9.88Zm-24.62.8a4.15,4.15,0,0,1-4.36,4.12,4.11,4.11,0,1,1,0-8.21,4.15,4.15,0,0,1,4.38,4.09m-2.29,0a2,2,0,0,0-2.11-2.15,2,2,0,0,0-2,2.2,2,2,0,0,0,2,2.16,2,2,0,0,0,2.05-2.21m-38.4,0a4,4,0,0,1-.83,2.5,3.8,3.8,0,0,1-.86.78,4.34,4.34,0,0,1-2.69.73h-4.16l.17-.11.76-.45c.23-.13.33-.27.33-.76v-4.6c0-.51-.14-.65-.34-.79a2.49,2.49,0,0,1-1.12-1.65v-.11l.1.06a2.64,2.64,0,0,0,.72.31,11.62,11.62,0,0,0,2.31.12h1.6a4.46,4.46,0,0,1,2,.48,3.86,3.86,0,0,1,2.06,3.49m-2.32,0c0-1.3-.67-2.05-1.85-2.05h-.89v4.1h.89c1.18,0,1.85-.75,1.85-2.05m55.32-1.12-.32-.08h0c-.76-.18-1.25-.32-1.25-.64a.36.36,0,0,1,.09-.26,1.13,1.13,0,0,1,.79-.21H164a5.21,5.21,0,0,1,2.34.92l-.13-2.36-.15-.05h0l-.37-.09a12.6,12.6,0,0,0-1.45-.24,3.62,3.62,0,0,0-.46,0c-1.77,0-2.81.84-2.92,2.37a2.06,2.06,0,0,0,.95,1.9,9.6,9.6,0,0,0,2,.8l.14,0c.39.12.83.36.77.82,0,.24-.12.5-.85.5h-.35a3.51,3.51,0,0,1-1.74-.85l-.06-.05-.41-.31-.41-.31.16,3,.16.06h0l.36.09a15.39,15.39,0,0,0,1.6.24l.44,0c1.94,0,3.22-1,3.25-2.46s-.78-2.38-2.44-2.8m-23.2,3.17h-1.81V21.13h1.7a1.56,1.56,0,0,1,.6.06,1,1,0,0,1,.27.24l.08.12V19L142,19l-.2.11a1.23,1.23,0,0,1-.5.05h-1.88v-1h1.88a1.1,1.1,0,0,1,.86.24l.47.35-.25-2.52H136l.17.1.7.44c.24.16.33.27.33.79v5.32c0,.52-.08.61-.32.77l-.75.44-.18.11h6.61l.59-2.67s-.53.39-.68.48a2,2,0,0,1-1.24.25m-12.41-6h-4.52l.17.1.71.44c.24.16.33.27.33.79v1.93l-3.34-3.27H117a.83.83,0,0,0-.33.1l0,0,0,.05.19.26a.59.59,0,0,1,.09.35v4.07h0v0c0,.85-.4,1.29-1.2,1.29s-1.24-.45-1.24-1.33V17.06a.59.59,0,0,1,.09-.35l.18-.26,0-.05,0,0a.9.9,0,0,0-.33-.1H111l.17.1.71.44c.24.16.33.27.33.79v3.29a4.57,4.57,0,0,0,.25,1.68,2.5,2.5,0,0,0,.57.79,3.52,3.52,0,0,0,2.63,1,3.23,3.23,0,0,0,3.18-1.82,3.86,3.86,0,0,0,.25-1.59V17.6c0-.52.09-.63.33-.79l.48-.3c.13.09.31.2.43.3s.34.34.34.85v5.26c0,.51-.09.62-.32.77l-.76.44-.18.11H124l-.18-.11-.75-.44c-.23-.15-.33-.26-.33-.77V19.75l4.85,4.74V17.6c0-.52.09-.62.33-.79s.76-.44.77-.44Zm25.67,0h0Zm6.65,0h-4.52l.17.1.7.44c.24.16.33.27.33.79v1.93l-3.33-3.26h-2.66l.16.1.65.44c.23.16.34.34.34.85v5.26c0,.51-.1.62-.33.77l-.75.44-.18.11h4.53l-.18-.11-.75-.44c-.23-.15-.33-.26-.33-.77V19.75l4.84,4.74V17.6c0-.51.09-.62.34-.79s.76-.44.76-.44ZM136,23.77a2.9,2.9,0,0,1-.18-.27c-.06-.09-.1-.17-.1-.5V20.85c0-.32,0-.39.09-.48a2.35,2.35,0,0,1,.19-.27l0-.05L136,20a1,1,0,0,0-.32-.1h-3.4l.17.1.72.45c.22.13.34.29.34.77v1.17a2.73,2.73,0,0,1-.83.11c-1.36,0-2.06-.73-2.06-2.19a2,2,0,0,1,2.09-2.19,4.33,4.33,0,0,1,2.76,1v-.06l-.25-2.31,0-.17-.16,0-.16,0a12.53,12.53,0,0,0-1.41-.27,4.9,4.9,0,0,0-.7,0h-.13a4.12,4.12,0,1,0,0,8.24,11.27,11.27,0,0,0,1.82-.19l.23-.06h.06l.91-.24.39-.12Zm59.35-3.54a4,4,0,0,1-.83,2.5,3.74,3.74,0,0,1-.85.78,4.36,4.36,0,0,1-2.69.73H186.8l.18-.11.75-.45c.23-.13.33-.27.33-.76v-4.6c0-.51-.14-.65-.34-.79a2.53,2.53,0,0,1-1.12-1.65v-.11l.1.06a2.82,2.82,0,0,0,.72.31,11.68,11.68,0,0,0,2.31.12h1.61a4.5,4.5,0,0,1,2,.48,3.87,3.87,0,0,1,2.05,3.49m-2.31,0c0-1.3-.68-2.05-1.85-2.05h-.9v4.1h.9c1.17,0,1.85-.75,1.85-2.05m46.27-1.12-.32-.08h0c-.76-.18-1.26-.32-1.26-.64a.33.33,0,0,1,.1-.26,1.1,1.1,0,0,1,.78-.21h.25a5.2,5.2,0,0,1,2.35.92L241,16.5l-.16-.05h0l-.36-.09a13,13,0,0,0-1.45-.24,3.62,3.62,0,0,0-.46,0c-1.78,0-2.82.84-2.93,2.37a2.07,2.07,0,0,0,1,1.9,9.73,9.73,0,0,0,2,.8l.15,0c.38.12.83.36.77.82,0,.24-.13.5-.86.5h-.34a3.48,3.48,0,0,1-1.74-.85l-.07-.05-.4-.31-.41-.31.16,3,.16.06h0l.36.09a15.39,15.39,0,0,0,1.6.24l.44,0c1.93,0,3.21-1,3.25-2.46s-.78-2.38-2.44-2.8M227,20.24a4.16,4.16,0,0,1-4.36,4.13,4.11,4.11,0,1,1,0-8.21A4.15,4.15,0,0,1,227,20.24m-2.3,0a2,2,0,0,0-2.1-2.15,2,2,0,0,0-2,2.21,2,2,0,0,0,2.06,2.16,2,2,0,0,0,2-2.22m-14.06,3.47.67.53h-4.17s.36-.34.51-.51a.44.44,0,0,0,.11-.54l-.13-.35h-2.89c-.06.16-.1.29-.13.35-.12.29-.09.37.07.53s.61.51.61.51h-4.37l-2-2.42h0a1.78,1.78,0,0,0-.53-.54.24.24,0,0,0-.13,0v1.7c0,.5.1.59.34.77s.94.55.94.55h-4.66s.71-.4.94-.55.32-.26.32-.77V17.61c0-.49-.1-.65-.33-.79l-.7-.44-.17-.1h3.8a4.62,4.62,0,0,1,1.42.15,2.12,2.12,0,0,1,1.58,2.12,2.22,2.22,0,0,1-.38,1.28,2.29,2.29,0,0,1-.74.68c.84,1.11,1.5,1.94,1.9,2.39,0,0,2.42-5.81,2.42-5.81s0-.08,0-.11,0-.09-.12-.2l-.56-.52h3.14S210,22.9,210,22.94h0a1.27,1.27,0,0,0,.17.31,1.53,1.53,0,0,0,.45.46m-11.09-5.17c0-.41-.27-.68-1-.69h-.27v1.85h.27c.5,0,1-.12,1-1.18M207,21l-.72-2-.78,2ZM236,16.27h-4.51l.17.1.7.44c.24.16.33.27.33.79v1.93l-3.34-3.27H226.7l.16.1s.41.27.64.44.34.34.34.85v5.26c0,.51-.09.62-.32.77l-.76.44-.18.11h4.53l-.18-.11-.75-.44c-.23-.15-.32-.26-.32-.77V19.75l4.84,4.74V17.6c0-.52.09-.62.33-.79s.76-.44.77-.44Zm-18.33,7.16c-.06-.09-.1-.17-.1-.5V20.78c0-.33,0-.39.1-.48a2.9,2.9,0,0,1,.18-.27l0-.05-.06,0a.7.7,0,0,0-.32-.1h-3.4l.18.1.72.45c.22.13.33.29.33.77v1.17a2.63,2.63,0,0,1-.82.11c-1.37,0-2.06-.74-2.06-2.19a1.94,1.94,0,0,1,2.08-2.18,4.29,4.29,0,0,1,2.77,1V19l-.24-2.31,0-.17-.17,0-.16,0c-.71-.16-1-.2-1.41-.26a4.81,4.81,0,0,0-.7,0h-.13a4.12,4.12,0,1,0,0,8.24,11.15,11.15,0,0,0,1.82-.19l.24-.06h0l.91-.24.39-.13,0-.06s-.12-.16-.19-.27m-35.35-4.7c-1.72.08-3.19,1.54-3.95,2.57a1.5,1.5,0,0,1,.41.22l.64.52a8.77,8.77,0,0,1,1.37-2.16,1.82,1.82,0,0,1,2.35-.36,3.4,3.4,0,0,1,2.37-.47A3.35,3.35,0,0,0,183.22,18c-.81,0-1.27.4-1.39.22s.55-.56.55-.56c-1,0-1.65,1.16-1.94,1s.26-.63.26-.63a4.19,4.19,0,0,0-1.76,2.24,4.31,4.31,0,0,1,3.38-1.54m-5.22,4.56A3.25,3.25,0,0,1,174.79,25c-1.73,0-2.6-2.45-.67-4.46a1.1,1.1,0,0,0-.25,0,.83.83,0,0,0-.43.12l-.85.73.24-1.19a.61.61,0,0,1,0-.12,3.85,3.85,0,0,0-1,.69l-.77.84.08-1.19,0-.26a1.41,1.41,0,0,0,.06-.49l0-.06A3.65,3.65,0,0,0,169.79,22a1.11,1.11,0,0,1,.35-.33c.11,0,.21,0,.1.33a4.33,4.33,0,0,0,.88,4.47s-.2-.52-.08-.68.14-.08.25.06a3.76,3.76,0,0,0,.25.31h0a4.61,4.61,0,0,0,.51.48,3.85,3.85,0,0,0,2.18.71,4.67,4.67,0,0,0,4.2-2.91.52.52,0,0,0-.1-.11c-.35-.31-.85-.73-1.23-1m-5.17-6.6a1.76,1.76,0,0,1,.06-.76l.34-1,.42,1a1.6,1.6,0,0,0,.69.7,3.15,3.15,0,0,1,.23-1.4,1.24,1.24,0,0,1,1.16-1.37c1.11,0,1.4,1.34.89,2.3a5.75,5.75,0,0,0,.92,1l.32.29.08.09a4.21,4.21,0,0,0,.83-2.25A2.77,2.77,0,0,0,175,12.4a3.27,3.27,0,0,0-2.67.93,2.82,2.82,0,0,0-.77,2.31,2.14,2.14,0,0,0,.35,1.05" style="fill: #1d1d1b"/>
  </g>
</svg>
