<svg id="Calque_1" data-name="Calque 1" xmlns="http://www.w3.org/2000/svg" width="207.24mm" height="35.1mm" viewBox="0 0 587.44 99.51">
  <g>
    <path d="M337.78,32.07l22.28-1.67-27.48-2,42.05-3.15-37.44-2.8,51.87-3.87-88.34-6.61,23.74-1.78L281.12,6.9l-38.5,2.88L225.3,7.53l42.49-3.18L233.74,1.81,210,3.58,182.46,1.52,156.71,3.45l26.16,2L154,7.56,125.22,5.4l16.71-1.25L122,2.66,58.15,7.43,80.77,9.12,9.06,14.48l42.23,3.16L29,19.31l27.48,2.05-42,3.14,37.45,2.81L0,31.18l71.29,5.34L38.65,39l34.46,2.57L82,40.87l25.92,1.94,38.5-2.88,17.3,2.25-44.87,3.35,61.6,4.61,13.47-1-24.25-1.81,34.63-2.59,24.26,1.81,15.89-1.18,22.62,1.69,63.82-4.77L308.3,40.59,380,35.23Zm-114.3,17,23.26,1.74L270,49.06l-23.26-1.74ZM84.29,42.54l23.25,1.74L84.29,46,61,44.28Z" style="fill: #e3e3e3"/>
    <path d="M388.92,84.3,407,82.94,384.7,81.27l34.16-2.55-30.42-2.28,42.14-3.15-71.76-5.36,19.28-1.44-35.2-2.64-31.28,2.34-14.06-1.83,34.51-2.58-27.66-2.07-19.28,1.44-22.37-1.67-20.92,1.57,21.25,1.59-23.42,1.75-23.41-1.75,13.57-1-16.21-1.21-51.84,3.87,18.37,1.38L121.9,70l34.3,2.57-18.1,1.35,22.32,1.67-34.15,2.55,30.41,2.28-42.14,3.15,57.91,4.33-26.51,2,28,2.09,7.24-.54L202.22,93l31.28-2.34,14.05,1.83L211.1,95.23l50,3.74,10.94-.81-19.7-1.48,28.13-2.1,19.71,1.47,12.91-1,18.37,1.37,51.84-3.87L365,91.21l58.25-4.35ZM296.08,98.1,315,99.51l18.89-1.41L315,96.68ZM183,92.8l18.89,1.41L183,95.63l-18.89-1.42Z" style="fill: #e3e3e3"/>
    <path d="M553.09,38.29,568,37.18,549.61,35.8l28.17-2.11-25.09-1.87,34.75-2.6-59.18-4.43,15.9-1.19-29-2.17-25.8,1.93-11.6-1.51,28.47-2.13L483.38,18l-15.89,1.19L449,17.83l-17.25,1.29,17.53,1.31L430,21.87l-19.31-1.44,11.19-.84-13.37-1-42.76,3.2,15.15,1.13-48,3.59,28.29,2.12-14.93,1.11,18.41,1.38-28.17,2.11,25.09,1.87-34.76,2.6,47.77,3.57-21.87,1.64,23.08,1.72,6-.44,17.37,1.3,25.79-1.93,11.59,1.51-30.06,2.24L447.7,50.4l9-.68-16.24-1.21,23.19-1.74L479.93,48l10.64-.8,15.16,1.14,42.75-3.2L533.34,44l48-3.59ZM476.52,49.67l15.58,1.17,15.57-1.17L492.1,48.51Zm-93.26-4.36,15.58,1.16-15.58,1.17-15.58-1.17Z" style="fill: #e3e3e3"/>
    <path d="M45.56,39.36V27.13h7.56s3.8,1.8,9.64-6.49H75.44l5-3.54s4.32-6.17,8.28-6.17,19.72-7.21,19.72-7.21l17-3.72,20.16,5.89,10.72,4.32s16.37,6.08,14.12,16c0,0,2-8.22-14.12-13.8,0,0,8.72,6.37,6.92,10.08,0,0,9.36,6.46,10.8,11.69,0,0,20.88,6.19,29.16-8,0,0-3,6.7-5.76,8,0,0,19.44,11.59,38.16-8,0,0-13.48,11.77-12.6,16.63l-53.28-1.62s.56-23.52-32.66-25.57S100.28,30.18,103,36.48Z" style="fill: #fff"/>
    <path d="M140.28,37.93s6.08-22.32,27,3.24c0,0-14.57-28.44-30.14-4Z" style="fill: #fff"/>
    <path d="M159.47,26.28c.22.14.59.41,1.07.78-.67-.5-1.07-.78-1.07-.78m20.28,12a27.16,27.16,0,0,0-3.26-1.65,40.94,40.94,0,0,1,2.82,8.17,35.61,35.61,0,0,0-3.66-8.57,83.47,83.47,0,0,1-12.19-7c4.94,3.84,12.62,10.32,11.88,12.85,0,0-.38-1-1.1-.67s-2.73,2.84-5.18,1.49a1.18,1.18,0,0,0-.07.2l.06-.21a4,4,0,0,1-.91-.67,5.4,5.4,0,0,0,1,.4c.37-1.81-.18-5.52-8.28-9.67,0,0-2.75-.32-2.9,1.87,0,0-8.65-4.42-9.14-1.13s4.27,4.5,4.27,4.5l-9.12.33a11.6,11.6,0,0,1,2.24-8.44s-.15,2,1.66,1.44,5.77-4.66,4.63-7.2a22.55,22.55,0,0,1,6.26,3.37c2.09,1.85,12.16,8.9,10.42,14.94,1.14.33,2.89.43,3.3-2,.49-3-7.23-9.89-11.08-13l-.33-.27-.5-.39.22.16a32.74,32.74,0,0,1-6.4-6.77,57.56,57.56,0,0,0,18.28,11.49,41.07,41.07,0,0,0-8.85-8.1,2.7,2.7,0,0,1-.53.81,4,4,0,0,0,.26-1c-8.24-5.57-20.42-10-38.39-11.5,0,0-15.94-.35-15.08,7.63,0,0-.27,2.22,3.13,3.17a32.46,32.46,0,0,1-5.7-.66s.43-1-.53-1-14,8.46-13.4,14.55c0,0,3.29,0,6.36-6.14,0,0-1.5,4.44-2.35,6.46,0,0-4.2,1.48-5.12,5a20.74,20.74,0,0,1-1.84,5S75.26,59,61.94,60.62c0,0-5.95.74-10.11-2l2.41-.1S45,57.1,41.07,51.35,33,33.25,34.41,25.42c0,0,.89,7.14,3.59,11,0,0,2.58-22.85,21.88-35.92,0,0-5.25,6.29-5.13,8.89,0,0-2.08-.54-4.51,4.18s-2.21,13,4.33,12.14,8.1-7.65,7-11.34c0,0,1.14,2.93,3.81,2.08a16.62,16.62,0,0,0,5.16-3.11s-1.53,5.84,8.64,3.34l-2.92-.35S91,5.16,99.55,1.74a98.78,98.78,0,0,0-11.86,8S110.78-4,134,1.17c.67.15,1.29.32,1.93.48l-.08,0,.53.15,1.82.49c3.92,1,11.77,2.81,15.77,1.91,0,0-3.44,1.24-3,2.43s7.59,3.71,7.59,3.71-2.07.62-.15,2.55l0,0c3.25,3,5.13,6,5.59,8.32a45.15,45.15,0,0,1,10.21,11.32c8.51,2.67,18.46,2.45,27.14-6.62,0,0-4.36,5.86-4,7.09s3.35,1.4,3.35,1.4l.86,1.8s-7.27-3.73-14.08.66c0,0,.52,1.3,4.33.55a7.91,7.91,0,0,1-3,.83c-2.4.39-4.45.73-1.54,3.64a70.9,70.9,0,0,1-8.48-2.39s2.08-.08,1-1.12M85.65,13.25l.68.36.38.67.36-.69.67-.38-.68-.36-.38-.67-.36.69ZM86.87,15a.65.65,0,1,0,0,1.3.65.65,0,0,0,0-1.3m-2,2a.44.44,0,0,0,.44.43A.44.44,0,0,0,85.7,17a.42.42,0,0,0-.44-.43.44.44,0,0,0-.43.44M83.5,15.71a.67.67,0,0,0,.67.65.66.66,0,0,0,.64-.67.65.65,0,0,0-.66-.64.66.66,0,0,0-.65.66m-3,2.56a.44.44,0,1,0,.43-.45.45.45,0,0,0-.43.45m2.13,26.94c-5.78,6.39-11.16,3.88-11.16,3.88,5.42,4.84,11.16-3.88,11.16-3.88M88.31,22.9c1.1-1.1,7.93-7.84,7.93-7.84s-7.58,5.67-12.5,6.35c-2.18.31-6.39,0-11.46.66-3.12,1.56-7.86,3.82-8,3.18-.11-.37.29-1,.83-1.64A33.55,33.55,0,0,0,51.4,31.75S49,33.28,49.58,33.62l1.18.67s-3,2-2.2,3.29,8.11-4.16,8.11-4.16a45.26,45.26,0,0,1-5.9,5.39,5.65,5.65,0,0,0-2.08,6.42s1,4,5.92,2.92l-.3-.52-1-.5.94-.54.5-1,.53.94,1,.5-.94.53-.22.41c.28-.08.56-.16.86-.27,6.16-2.27,13.78-.48,17,.21s7.3-4.06,9.31-8.83c0,0,1,.15,2.28-1.52,0,0-1,2.6-.38,3.61s2.23.27,2.55-.46l-.72-1.41A10.37,10.37,0,0,0,90,35a7,7,0,0,0-1.15-7.52,13.69,13.69,0,0,1,1.59,1.72s.68-5.5,3.6-7.92c0,0-5.34,3.34-6.18,3.72s-.67-1,.42-2.11M142,7.59s-10.87-5.38-28.16-3.8a17.89,17.89,0,0,1-9.52,3.75S92.8,11.64,87.12,17.4c0,0,2.58-2.33,5.1-1.61,0,0,24.31-18.58,49.74-8.2m-10.31,2.59-.47-.25-.26-.46-.25.47-.47.27.48.24.26.47.25-.47Zm2.46-.62-.47-.25-.26-.46-.25.47-.47.27.48.25.26.46.25-.47Zm2.55.18a.56.56,0,0,0-.56-.54.55.55,0,0,0-.53.56.53.53,0,0,0,.55.53.55.55,0,0,0,.54-.55m2.53,1.81a.55.55,0,0,0-.55-.54.56.56,0,0,0-.54.56.54.54,0,0,0,.55.53.53.53,0,0,0,.54-.55m1.18-1.22a.53.53,0,0,0-.55-.53.54.54,0,0,0-.54.55.55.55,0,1,0,1.09,0m5.15,2.1a.32.32,0,0,0-.33-.32.33.33,0,0,0,0,.65.32.32,0,0,0,.32-.33m1.1.85a.22.22,0,0,0-.43,0,.22.22,0,0,0,.43,0m16.59,7.25C161.67,15.89,154.41,8.64,125,6a87.55,87.55,0,0,1,17.29,3.89,1.3,1.3,0,0,0,1.22,1.82,1.29,1.29,0,0,0,1.22-1,68.79,68.79,0,0,1,18.44,9.81m-15.8-3.3-.34.64-.62.35.63.34.36.62.33-.64.63-.35-.64-.34Zm2.14,3.88.46-.88.85-.48-.87-.46-.49-.86-.46.87-.86.49.88.46Zm32.7,11.46.54-1,1-.57-1-.54-.57-1-.53,1-1,.57,1,.53Zm3.17-1.9.4-.76.75-.43-.76-.4-.43-.75-.4.76-.75.43.76.4Zm.66,1.29.34.18.19.33.18-.34.33-.19-.34-.18-.19-.33-.18.34Zm3.15.87.27-.51L190,32l-.51-.27-.29-.5-.27.51-.5.29.51.26Zm5.32-2.93.54-1,1-.57-1-.53-.57-1-.53,1-1,.57,1,.54Zm6.56,1.49-.21.4-.4.23.41.21.22.39.21-.4.4-.22-.41-.22Zm-26.63-3.74.35-.67.66-.37-.67-.35-.37-.66-.36.67-.65.37.67.36ZM97.23,36.74l-.44.84-.83.48.84.44.48.83.44-.84.83-.48-.84-.44Zm3-1.17-.29.53-.52.3.53.28.3.53.28-.54.53-.29-.54-.29Zm2.66,2.89-.32.61-.6.34.61.32.34.59.31-.6.6-.34-.6-.32Zm66,4.79a5.12,5.12,0,0,1-.28.58,3.15,3.15,0,0,0,.28-.58m0-.1v0m0,0,0,.08,0-.08m75.09-32.5s2.31,7.63,1.12,13.12c0,0,.1-5.11-1.89-3.8s-10.08,8.56-3.82,12.11c0,0-14,.41-15,9.37,0,0-3.18-.67-7.66-1.28a15.63,15.63,0,0,1-2.19,1.25c-8.33,4-29.52,8.5-23.42-.08-2.79,1.57-4.06,4.14-2.56,8.17,0,0-4.88-8.5,7.86-11.08,0,0-2.94-1.23-1.32-2.35,0,0,11.85,4.3,22.58,2.21,1.09-1.41.88-3-1.45-4.74,0,0,3.61,1.91,2.43,4.53a20.5,20.5,0,0,0,8.17-3.79s-3.81,1.16-5.63,1.55A37.23,37.23,0,0,0,229,31.52l-.29-.5-1.38-.73,1.36-.78.73-1.38.77,1.36.87.45a39,39,0,0,0,13-19.27M215.68,40c-6.34-.82-14.77-1.43-20.65-.07-1.44.69-3.85,2.19-2.63,4s16.85-.1,23.28-4m32.15-22.28-.36.69-.69.39.7.36.39.69.36-.7.68-.38-.69-.37ZM250,16.63l-.17.34-.33.18.33.18.19.33.18-.34.33-.18-.34-.18Zm-2.23-2.82-.53,1-1,.56,1,.53.57,1,.53-1,1-.56-1-.53ZM252.44,12l-.33-.59-.31.6-.59.33.6.31.33.59.31-.6.59-.33Zm-21.6,16.18.31-.59.59-.33-.59-.32-.34-.58-.31.59-.58.34.59.31Zm-2.58-1.69.28-.54.52-.29-.53-.28-.3-.53-.28.54-.52.29L228,26ZM227.55,28a.46.46,0,0,0,.92,0,.47.47,0,0,0-.47-.45.46.46,0,0,0-.45.46m3.51-3.25a1,1,0,0,0,1-1,1,1,0,0,0-1-1,1,1,0,1,0,0,2M234.65,21a.46.46,0,1,0,0-.91.46.46,0,0,0,0,.91M205.26,38.13a.92.92,0,1,0-.92-.9.92.92,0,0,0,.92.9m3.35-2.25a.44.44,0,0,0,.44-.46.46.46,0,1,0-.44.46m-5.68,4.66a.55.55,0,0,0,.56.54.55.55,0,0,0,0-1.1.55.55,0,0,0-.54.56M57.19,45.43l-.15.28-.28.16.29.15.15.28.16-.28.27-.16-.28-.15Zm.3-1.46-.19.38-.38.21.38.2.21.38.21-.38.37-.21-.38-.21ZM55.63,43l-.27.51-.5.29.51.26.28.51.27-.51.51-.29-.52-.27ZM80,30.34l-.15.3-.3.17.3.15.17.3.16-.3.29-.17-.3-.16Zm3-3.2-.41.79-.78.44.79.42.44.78.42-.79.78-.45-.79-.41Zm-22,15.61-.3.57-.56.32.57.3.32.56.3-.57.56-.32-.57-.3Zm20-13.44-.17.32-.31.18L81,30l.17.31.17-.32.31-.18-.32-.17Zm98.2,15.52a47.44,47.44,0,0,1,1.16,11.24,31.06,31.06,0,0,0-1.16-11.24" style="fill: #1d1d1b"/>
    <path d="M57.32,26.64s-6.54,4.64-4.74,6.25,4.65-1.42,4.65-1.42-.86,2.18,0,2.46,4-3.12,9.18-1.61c0,0-4.73.19-3.69,3.13L46,36.49l.19-4.36s6.54-5.3,11.18-5.49" style="fill: #1d1d1b"/>
    <path d="M80.85,34.56s3.65.09,5-2.61a1.16,1.16,0,0,0,1.48.78A3.08,3.08,0,0,0,89.2,28.9a4.26,4.26,0,0,1,.26,4s-1.65.87-1.56,1.91Z" style="fill: #1d1d1b"/>
    <path d="M52.32,32.48s-1-2,.78-5c0,0-1.05,2.91.37,3.56Z" style="fill: #fff"/>
    <polygon points="72.28 22.07 76.97 19.07 72.91 22.51 72.28 22.07" style="fill: #fff"/>
    <path d="M250,20.22V93.48a11.78,11.78,0,0,1,2.1-3.57V23.78a11.61,11.61,0,0,1-2.1-3.56" style="fill: #fff"/>
    <path d="M250,20.22V93.48a11.78,11.78,0,0,1,2.1-3.57V23.78A11.61,11.61,0,0,1,250,20.22Z" style="fill: none;stroke: #1d1d1b;stroke-miterlimit: 10;stroke-width: 1.25px"/>
    <polygon points="21.85 46.28 21.85 83.78 57.35 79.14 57.35 41.64 21.85 46.28" style="fill: #fff"/>
    <polygon points="21.85 46.28 21.85 83.78 57.35 79.14 57.35 41.64 21.85 46.28" style="fill: none;stroke: #1d1d1b;stroke-miterlimit: 10;stroke-width: 1.375px"/>
    <path d="M22.63,48.79l34.72-4.42M22.63,81l34.72-4.93" style="fill: none;stroke: #1d1d1b;stroke-miterlimit: 10;stroke-width: 0.75px"/>
    <polygon points="57.35 41.64 33.13 38.06 33.13 75.56 57.35 79.14 57.35 41.64" style="fill: #cbcbce"/>
    <polygon points="57.35 41.64 33.13 38.06 33.13 75.56 57.35 79.14 57.35 41.64" style="fill: none;stroke: #1d1d1b;stroke-miterlimit: 10;stroke-width: 1.375px"/>
    <path d="M252.17,75.56c-61.75,11.25-157.29-11.25-219,0V38.06c61.75-11.25,157.29,11.25,219,0Z" style="fill: #fff"/>
    <path d="M252.17,41s-19.87,8-114-.29C71.62,34.8,38.42,40,33.28,40.86M253.05,71.94s-20.5,8.66-114.67.33c-66.51-5.89-99.71-.73-104.85.17" style="fill: none;stroke: #1d1d1b;stroke-miterlimit: 10;stroke-width: 0.75px"/>
    <path d="M252.17,75.56c-61.75,11.25-157.29-11.25-219,0V38.06c61.75-11.25,157.29,11.25,219,0Z" style="fill: none;stroke: #1d1d1b;stroke-miterlimit: 10;stroke-width: 1.375px"/>
    <path d="M565.69,39.57V77.71c14.57-.08,16.46,0,18.95-3.23V37C580,39.46,575.16,39.53,565.69,39.57Z" style="fill: none;stroke: #1d1d1b;stroke-miterlimit: 10;stroke-width: 1.375px"/>
    <path d="M565.69,74.6c19.6,2.23,17.93-3.58,18.8-3.76M565.09,42.4c16.23,0,17.68-1.17,19.15-2.3" style="fill: none;stroke: #1d1d1b;stroke-miterlimit: 10;stroke-width: 0.75px"/>
    <rect x="252.08" y="26.53" width="313.89" height="60.64" style="fill: #e5e5e5"/>
    <rect x="252.08" y="26.53" width="313.89" height="60.64" style="fill: none;stroke: #1d1d1b;stroke-miterlimit: 10;stroke-width: 1.25px"/>
    <path d="M252.08,79.28s1.06,10.33,8.4,10.33h22s7.16-2.44,20.5-2.44m-50.9-52.76s1.06-10.33,8.4-10.33h22s7.16,2.45,20.5,2.45" style="fill: none;stroke: #1d1d1b;stroke-miterlimit: 10;stroke-width: 1.25px"/>
    <path d="M566,79.28s-1.07,10.33-8.4,10.33h-22s-7.17-2.44-20.5-2.44M566,34.41s-1.07-10.33-8.4-10.33h-22s-7.17,2.45-20.5,2.45" style="fill: none;stroke: #1d1d1b;stroke-miterlimit: 10;stroke-width: 1.25px"/>
    <path d="M274,87.17a103.93,103.93,0,0,1,17.21-1.92H526.87a103.68,103.68,0,0,1,17.2,1.92m0-60.64a104.76,104.76,0,0,1-17.2,1.92H291.18A105,105,0,0,1,274,26.53" style="fill: none;stroke: #1d1d1b;stroke-miterlimit: 10;stroke-width: 0.75px"/>
    <path d="M568.07,20.22V93.48a11.78,11.78,0,0,0-2.1-3.57V23.78a11.61,11.61,0,0,0,2.1-3.56" style="fill: #fff"/>
    <path d="M568.07,20.22V93.48a11.78,11.78,0,0,0-2.1-3.57V23.78A11.61,11.61,0,0,0,568.07,20.22Z" style="fill: none;stroke: #1d1d1b;stroke-miterlimit: 10;stroke-width: 1.25px"/>
    <polygon points="337.54 33.25 276 33.25 269.66 41.23 269.66 57.83 276 65.8 337.54 65.8 343.88 57.83 343.88 41.23 337.54 33.25" style="fill: #fff"/>
    <polygon points="337.54 33.25 276 33.25 269.66 41.23 269.66 57.83 276 65.8 337.54 65.8 343.88 57.83 343.88 41.23 337.54 33.25" style="fill: none;stroke: #1d1d1b;stroke-miterlimit: 10;stroke-width: 1.375px"/>
    <path d="M278.29,33.25l-6.72,8.32m0,15.92,6.72,8.31m-6.72-27V60.55" style="fill: none;stroke: #1d1d1b;stroke-miterlimit: 10;stroke-width: 0.6000000238418579px"/>
    <path d="M270.62,49.53a.95.95,0,1,0,1.9,0,1,1,0,1,0-1.9,0" style="fill: #1d1d1b"/>
    <path d="M342.91,49.53a1,1,0,0,1-.94.95,1,1,0,1,1,0-1.9.94.94,0,0,1,.94,1" style="fill: #1d1d1b"/>
    <path d="M335.25,33.25,342,41.57m0,15.92-6.72,8.31m6.72-27V60.55" style="fill: none;stroke: #1d1d1b;stroke-miterlimit: 10;stroke-width: 0.6000000238418579px"/>
    <polygon points="438.25 33.25 376.71 33.25 370.37 41.23 370.37 57.83 376.71 65.8 438.25 65.8 444.59 57.83 444.59 41.23 438.25 33.25" style="fill: #fff"/>
    <polygon points="438.25 33.25 376.71 33.25 370.37 41.23 370.37 57.83 376.71 65.8 438.25 65.8 444.59 57.83 444.59 41.23 438.25 33.25" style="fill: none;stroke: #1d1d1b;stroke-miterlimit: 10;stroke-width: 1.375px"/>
    <path d="M379,33.25l-6.72,8.32m0,15.92L379,65.8m-6.72-27V60.55" style="fill: none;stroke: #1d1d1b;stroke-miterlimit: 10;stroke-width: 0.6000000238418579px"/>
    <path d="M371.33,49.53a.95.95,0,0,0,1.9,0,1,1,0,0,0-1.9,0" style="fill: #1d1d1b"/>
    <path d="M443.63,49.53a1,1,0,1,1-1.9,0,.95.95,0,1,1,1.9,0" style="fill: #1d1d1b"/>
    <path d="M436,33.25l6.72,8.32m0,15.92L436,65.8m6.72-27V60.55" style="fill: none;stroke: #1d1d1b;stroke-miterlimit: 10;stroke-width: 0.6000000238418579px"/>
    <polygon points="542.05 33.25 480.51 33.25 474.17 41.23 474.17 57.83 480.51 65.8 542.05 65.8 548.38 57.83 548.38 41.23 542.05 33.25" style="fill: #fff"/>
    <polygon points="542.05 33.25 480.51 33.25 474.17 41.23 474.17 57.83 480.51 65.8 542.05 65.8 548.38 57.83 548.38 41.23 542.05 33.25" style="fill: none;stroke: #1d1d1b;stroke-miterlimit: 10;stroke-width: 1.375px"/>
    <path d="M482.8,33.25l-6.72,8.32m0,15.92,6.72,8.31m-6.72-27V60.55" style="fill: none;stroke: #1d1d1b;stroke-miterlimit: 10;stroke-width: 0.6000000238418579px"/>
    <path d="M475.13,49.53a.95.95,0,1,0,1.9,0,1,1,0,1,0-1.9,0" style="fill: #1d1d1b"/>
    <path d="M547.42,49.53a.95.95,0,1,1-.95-1,.95.95,0,0,1,.95,1" style="fill: #1d1d1b"/>
    <path d="M539.76,33.25l6.72,8.32m0,15.92-6.71,8.31m6.71-27V60.55" style="fill: none;stroke: #1d1d1b;stroke-miterlimit: 10;stroke-width: 0.6000000238418579px"/>
    <path d="M223.57,20.75A1.75,1.75,0,1,1,221.82,19a1.68,1.68,0,0,1,1.75,1.77m-1.75,1.41a1.3,1.3,0,0,0,1.33-1.41,1.33,1.33,0,1,0-2.66,0,1.3,1.3,0,0,0,1.33,1.41m.43-1.16c.65-.15.51-1.15-.28-1.15h-.86v1.8h.48v-.56h.16l.43.56h.51v-.1Zm-.28-.72a.21.21,0,1,1,0,.41h-.38v-.41Z" style="fill: #1d1d1b"/>
    <path d="M182.77,18.28h-2v-9h2c2.58,0,4,1.65,4,4.52s-1.47,4.48-4,4.48m27.59-8V9.75a5.9,5.9,0,0,0-1,.37,4.33,4.33,0,0,1,1,.11M188.88,18.1l-.55.76.2-2.15a5.83,5.83,0,0,1,2-3.71c-.15,0-.32,0-.5.08l-1.93.39,1.39-1.39a7.3,7.3,0,0,1,1.73-1.14l.21-.12a8.27,8.27,0,0,0-4-4.72,9.57,9.57,0,0,0-4.3-1h-3.51a25.63,25.63,0,0,1-5.07-.26,5.6,5.6,0,0,1-1.58-.68L172.72,4l0,.25a5.42,5.42,0,0,0,2.45,3.61c.43.31.74.62.74,1.73V19.64c0,1.08-.21,1.38-.72,1.68l-1.66,1-.39.23h9.14a9.55,9.55,0,0,0,5.9-1.59,6.9,6.9,0,0,0,.68-.53,7.78,7.78,0,0,1,0-2.31m17.5.24a.61.61,0,0,0,.06-.56l-.56-1.55,1.42.85a2.4,2.4,0,0,1,.37.28l.86-.06a4,4,0,0,1,1.83.24V13.13a2.37,2.37,0,0,0-.68.33l-.36.33-.39-.3a1.75,1.75,0,0,0-1-.3,2.3,2.3,0,0,0-1.72.76c-.25.29-.48.6-.7.9v3.5c.35.27.71.26.9,0M217,6.1a9.57,9.57,0,0,0-4.3-1h-3.51a25.57,25.57,0,0,1-5.07-.26,5.91,5.91,0,0,1-1.59-.68L202.27,4l0,.25a5.5,5.5,0,0,0,2.46,3.61c.43.31.73.62.73,1.73v.73a9.25,9.25,0,0,1,1.61-.78,5,5,0,0,0-.65.7,4.33,4.33,0,0,1,1.68-.61,6.15,6.15,0,0,1,2.24,0V9.28h2c2.58,0,4.05,1.65,4.05,4.52s-1.47,4.48-4.05,4.48h-.76a3.29,3.29,0,0,1,1.1,2.41,3.21,3.21,0,0,1-.6,1.84,9.47,9.47,0,0,0,5.7-1.59,8.3,8.3,0,0,0,1.87-1.71,8.89,8.89,0,0,0,1.82-5.48A8.45,8.45,0,0,0,217,6.1" style="fill: #1d1d1b"/>
    <path d="M191.82,7.16A4.15,4.15,0,0,1,193,3.68a4.87,4.87,0,0,1,4-1.42,4.2,4.2,0,0,1,4.31,4.31A6.34,6.34,0,0,1,200.07,10a.8.8,0,0,0-.13-.13l-.48-.45a9.21,9.21,0,0,1-1.39-1.47c.8-1.45.35-3.51-1.34-3.51A1.86,1.86,0,0,0,195,6.53a4.85,4.85,0,0,0-.34,2.13,2.59,2.59,0,0,1-1.08-1.1L193,6.07l-.49,1.53a2.71,2.71,0,0,0-.08,1.17h0a3.45,3.45,0,0,1-.55-1.61M189.9,12.5c.83-.83,2.53-1.35,2.65-1.8s-.77-1.21-1.1-1.35a5.06,5.06,0,0,1,1.82.18A2.14,2.14,0,0,1,193,7.78c.66,1.59,3,1.84,3.6,3.15a2.55,2.55,0,0,0-1.24-1.57,3.77,3.77,0,0,1,.32-2.89c-.14,2.29,3.12,3.59,3.8,5.25-.4-1.42-1.92-2.32-2.64-3.17a2.33,2.33,0,0,1,.2-1.85c-.07,1.53,1.58,2.72,2.46,3.58a3,3,0,0,1,1.2,2.62.62.62,0,0,1,.48.66,1.28,1.28,0,0,0,.76-.69,2.75,2.75,0,0,1-1.26,2.69,1,1,0,0,0-.14-1c-.33-.41-1.29-.42-1.61-.39,0,0,.4-.59.24-.89s-2.07-.2-2.9.1a3.57,3.57,0,0,1,1.19.14c-.13.2-.47,1-.23,1.27s.53-.17.53-.17-.29.9-.08,1.11.65.06.65.06A2.47,2.47,0,0,1,196.24,17a1.63,1.63,0,0,0,.79-.86,2.09,2.09,0,0,1-.92.12,1.41,1.41,0,0,0,.58-1.44c-.22-1-1.67-1.17-2.4-.67a2.86,2.86,0,0,1,1.49-1.56,6.3,6.3,0,0,0-1.1-.28,4.21,4.21,0,0,1,2.22-.66,3.76,3.76,0,0,0-3.32,1,5.19,5.19,0,0,1,1.1.2,6.7,6.7,0,0,0-2.86,1.61A3.17,3.17,0,0,0,192,13c-.2-.51-.82-.73-2-.47m9.4.11a1.85,1.85,0,0,0-1.09-1.11c.17.58.39,1.11,1.09,1.11m12.77,8.08a3,3,0,0,0-3.48-2.81,1.6,1.6,0,0,1,1.27,1.46c0,1.31-1.64,1.72-2.54,1.51a2.11,2.11,0,0,0-.32-3.27,1.16,1.16,0,0,1-1.93,1.21c-.63-.52-2.1-1.75-2.75-2.27s-1.42-.22-1.73-.45-.12-1-.59-1.27-.78-.1-1.24-.25a.86.86,0,0,1-.67-.9,1.13,1.13,0,0,0,.12,1.22c.32.36.84.58,1,1s-.19,1.23,1.06,2.21c.59.46,1.51,1.23,2.11,1.75,1,.89.47,2,.6,3a2.38,2.38,0,0,0,1.67,1.92,1.76,1.76,0,0,1,0-2.4A3.16,3.16,0,0,0,207,25.12,3.82,3.82,0,0,0,210.75,24a2.66,2.66,0,0,1-2.33-.49,3.06,3.06,0,0,0,3.65-2.79m-10-.43c-.51-.46-1.28-1.1-1.87-1.56-.66,1.13-2.06,2.6-3.49,2.6-2.62,0-3.94-3.71-1-6.75a1.2,1.2,0,0,0-.39-.06,1.14,1.14,0,0,0-.66.18l-1.16.8.26-1.48.09-.23a6.51,6.51,0,0,0-1.57,1.08l-1.14,1.24.13-1.75c0-.13,0-.27.07-.39a2.14,2.14,0,0,0,.09-.76.22.22,0,0,0-.08-.09,5.59,5.59,0,0,0-2.2,3.67,1.59,1.59,0,0,1,.53-.5c.17-.06.31,0,.16.5-.07.19-1.5,4.07,1.32,6.76,0,0-.31-.79-.12-1s.21-.13.37.08.25.32.38.47h0a5.17,5.17,0,0,0,4.07,1.8c3.49,0,5.34-2.41,6.37-4.43l-.16-.15m6-8.43c-2.61.13-4.85,2.34-6,3.9a2,2,0,0,1,.62.33l1,.8a13.9,13.9,0,0,1,2.08-3.3,2.78,2.78,0,0,1,3.55-.54,5.16,5.16,0,0,1,3.58-.71,5.09,5.09,0,0,0-3.46-1.6c-1.22,0-1.92.6-2.09.33s.83-.86.83-.86c-1.45.06-2.5,1.76-2.94,1.55-.26-.13.39-1,.39-1a6.34,6.34,0,0,0-2.66,3.39,6.56,6.56,0,0,1,5.12-2.34m.43,6.63a1,1,0,0,1,.78.88.79.79,0,0,1-.41.69,1.87,1.87,0,0,1-.43.19,2.65,2.65,0,0,0,.12-.9c0-.55-.06-.86-.06-.86" style="fill: #1d1d1b"/>
  </g>
</svg>
