<svg id="Calque_1" data-name="Calque 1" xmlns="http://www.w3.org/2000/svg" width="207.24mm" height="34.57mm" viewBox="0 0 587.44 97.99">
  <g>
    <path d="M337.78,30.55l22.28-1.67-27.48-2.05,42.05-3.15-37.44-2.8L389.06,17,300.72,10.4l23.74-1.77L281.12,5.38l-38.5,2.88L225.3,6l42.49-3.18L233.74.29,210,2.06,182.46,0,156.71,1.93l26.16,2L154,6,125.22,3.89l16.71-1.25-20-1.5L58.15,5.91,80.77,7.6,9.06,13l42.23,3.16L29,17.79l27.48,2.05L14.43,23l37.45,2.81L0,29.66,71.29,35,38.65,37.44,73.11,40,82,39.35l25.92,1.94,38.5-2.88,17.3,2.25L118.87,44l61.6,4.6,13.47-1L169.69,45.8l34.63-2.59L228.58,45l15.89-1.18,22.62,1.69,63.82-4.77L308.3,39.07,380,33.71Zm-114.3,17,23.26,1.74L270,47.54,246.74,45.8ZM84.29,41l23.25,1.74L84.29,44.5,61,42.76Z" style="fill: #e3e3e3"/>
    <path d="M388.92,82.78,407,81.42,384.7,79.75l34.16-2.55-30.42-2.28,42.14-3.14-71.76-5.37L378.1,65l-35.2-2.64-31.28,2.34-14.06-1.83,34.51-2.58-27.66-2.07-19.28,1.45L262.76,58l-20.92,1.57,21.25,1.59-23.42,1.75-23.41-1.75,13.57-1-16.21-1.21-51.84,3.87,18.37,1.38L121.9,68.49l34.3,2.57-18.1,1.35,22.32,1.67-34.15,2.55,30.41,2.28-42.14,3.15,57.91,4.33-26.51,2,28,2.1,7.24-.55,21.05,1.58,31.28-2.34L247.55,91,211.1,93.72l50,3.74,10.94-.82-19.7-1.48,28.13-2.1,19.71,1.47,12.91-1,18.37,1.37,51.84-3.87L365,89.7l58.25-4.36Zm-92.84,13.8L315,98l18.89-1.41L315,95.16ZM183,91.28,201.9,92.7,183,94.11,164.12,92.7Z" style="fill: #e3e3e3"/>
    <path d="M553.09,36.77,568,35.66l-18.41-1.38,28.17-2.11L552.69,30.3l34.75-2.6-59.18-4.43,15.9-1.18-29-2.18-25.8,1.93-11.6-1.51,28.47-2.12L483.38,16.5l-15.89,1.19L449,16.31,431.78,17.6l17.53,1.31L430,20.35l-19.31-1.44,11.19-.84-13.37-1-42.76,3.2L380.9,21.4l-48,3.59,28.29,2.12-14.93,1.11,18.41,1.38-28.17,2.11,25.09,1.87-34.76,2.6,47.77,3.57-21.87,1.64,23.08,1.72,6-.44L399.11,44,424.9,42l11.59,1.51-30.06,2.24,41.27,3.09,9-.67L440.48,47l23.19-1.74,16.26,1.22,10.64-.8,15.16,1.14,42.75-3.2-15.14-1.13,48-3.59ZM476.52,48.16l15.58,1.16,15.57-1.16L492.1,47Zm-93.26-4.37L398.84,45l-15.58,1.17L367.68,45Z" style="fill: #e3e3e3"/>
    <polygon points="169.93 26.69 197.2 24.29 169.93 22.36 141.04 24.52 169.93 26.69" style="fill: #fff"/>
    <polygon points="175.28 21.07 193.46 19.47 175.28 18.18 156.02 19.63 175.28 21.07" style="fill: #fff"/>
    <polygon points="160.45 18.59 173.88 17.41 160.45 16.45 146.23 17.52 160.45 18.59" style="fill: #fff"/>
    <polygon points="188.41 16.44 201.02 15.33 188.41 14.44 175.06 15.44 188.41 16.44" style="fill: #fff"/>
    <polygon points="168.16 29.27 186.31 27.68 168.16 26.39 148.94 27.83 168.16 29.27" style="fill: #fff"/>
    <polygon points="63.52 14.26 82.23 12.63 63.52 11.31 43.7 12.79 63.52 14.26" style="fill: #fff"/>
    <polygon points="66.7 15.98 81.07 14.73 66.7 13.72 51.48 14.85 66.7 15.98" style="fill: #fff"/>
    <polygon points="58.23 24.45 72.6 23.2 58.23 22.19 43 23.32 58.23 24.45" style="fill: #fff"/>
    <polygon points="62.63 27.38 75.34 26.27 62.63 25.38 49.17 26.38 62.63 27.38" style="fill: #fff"/>
    <path d="M565.69,38.05V76.19c14.57-.08,16.46,0,18.95-3.23V35.46C580,37.94,575.16,38,565.69,38.05Z" style="fill: none;stroke: #1d1d1b;stroke-miterlimit: 10;stroke-width: 1.375px"/>
    <path d="M565.69,73.08c19.6,2.23,17.93-3.58,18.8-3.76m-19.4-28.44c16.23-.05,17.68-1.17,19.15-2.3" style="fill: none;stroke: #1d1d1b;stroke-miterlimit: 10;stroke-width: 0.75px"/>
    <path d="M253.53,35a5.38,5.38,0,0,1-.89-1c-.07.07-.19.09-.23,0a.32.32,0,0,0,0-.09.21.21,0,0,1,0,.12.35.35,0,0,0-.06.23l0,0h0a.83.83,0,0,0,0,.15.22.22,0,0,1-.08.19.69.69,0,0,1-.41.51,4,4,0,0,1,1.21.43l.32-.21a2.66,2.66,0,0,1-.95-.45c-.12-.08-.12-.3.06-.31a1.19,1.19,0,0,1,.61.17,2,2,0,0,0,.46.2m-3.93-1.55-.1-.07a.14.14,0,0,1,0,.07h.08m-3,.58-.23-.28a.73.73,0,0,0,.08.33l.15,0m-.73.25a1.18,1.18,0,0,1,0-.2.5.5,0,0,0,0,.12.28.28,0,0,0,0,.09h0l.05,0m-51,9.76c.08.23.15.46.23.7l.47-.13a2.6,2.6,0,0,1,.88-.29c.62-.22,1.24-.44,1.87-.63-.27-.41-.5-.86-.75-1.28-.12-.19-.23-.38-.34-.57a.31.31,0,0,1-.12,0,.09.09,0,0,1,0-.16h0l-.12-.25c-.15.15-.31.29-.48.43l-.47.43a.18.18,0,0,1-.13.05q-.34.26-.69.48a.71.71,0,0,1-.06.23.14.14,0,0,1,0,.06.54.54,0,0,1,0,.25.19.19,0,0,1,0,.07.22.22,0,0,1-.1.22c0,.11-.09.22-.14.34a.17.17,0,0,1-.12.1m1.38-8.45a.54.54,0,0,1,0,.11h.06l-.11-.1M197.49,41l0,.07,0-.07h-.08m.31.45.06.09a.3.3,0,0,1,.06-.2,2.75,2.75,0,0,1,.23-.33l0-.06h0l-.06.09a3.89,3.89,0,0,1-.33.42m.57.59v0h0M203,32.24l.12-.26-.09,0a1.53,1.53,0,0,0,0,.3m.45-7.32a1.21,1.21,0,0,0,.05.18l0,0,.09,0c-.05-.07-.11-.13-.16-.19h0m.68,9.42a1,1,0,0,1,.26.36,3.81,3.81,0,0,1,.23-.4,1.38,1.38,0,0,1-.49,0m.27-9.41a1.89,1.89,0,0,1,.17.28l-.09-.29,0,0,0,0m.27.72h0a.43.43,0,0,0,0,0s0,0,0,0M207,27.94l.13.33c.13.35.39.93.56,1.52.17-.66.37-1.34.6-2a4.71,4.71,0,0,1,.21-.52,8,8,0,0,1,.93-1.77.77.77,0,0,1,0-.37l0-.05h-.07a8.9,8.9,0,0,0-.76,1,4.33,4.33,0,0,1-1,1.8.53.53,0,0,1-.59.1m2.8,1.73,0,0h0v0m6.05-5A2.37,2.37,0,0,0,216,25l.1,0a3.72,3.72,0,0,1-.19-.34m3.8.08.08.24h.09l-.17-.24m4.12,3.39a3.65,3.65,0,0,1,.17.67,2.11,2.11,0,0,1,0-.5c0-.25.42-.38.54-.1a1.67,1.67,0,0,1,.11,1.41h0l.5.28c.43.23.7-.1.89-.45-.6-.26-1-1.11-.39-1.51a1,1,0,0,1,1-.14c.25-.1.52-.25.77-.1a.32.32,0,0,1,.14.16,1.39,1.39,0,0,1,.55.36,1.2,1.2,0,0,1,.53.61h0a.85.85,0,0,1,.35-.24c0-1.05-.07-2.08-.18-3.13,0-.28-.06-.55-.08-.82a4.27,4.27,0,0,1-.92.9s-.8-.27-1.09.09-.84,1.73-1.16,1.85a13.84,13.84,0,0,0-1.73.64m4.33-7.86.5-.13c0-.46-.06-.92-.08-1.38l0,0a.42.42,0,0,0,0-.1,12.92,12.92,0,0,1-.35,1.64m.36-2.78,0,.31v-.11a.86.86,0,0,0,0-.16.08.08,0,0,1,0,0m.3,1.19c0,.47.06.94.1,1.4a10.23,10.23,0,0,1,1.81-.16c-.62-.7-1.16-1.48-1.74-2.23a6.66,6.66,0,0,1-.11.91.1.1,0,0,1-.06.08m3.3,12.08v0a.44.44,0,0,1,.12-.15l0,0a.37.37,0,0,1-.1.17m-6.79.21h0m-7.14,10.87.25-.05a.15.15,0,0,0,0-.07s0,0-.08-.06l-.16.18M203,45.12l0,0h0a.29.29,0,0,0,0,.09l0-.05m26-20.56c0-.1,0-.21,0-.31s0,0,0,0a2.51,2.51,0,0,0,0,.27m-5,4.71h0s0-.08,0-.13a.49.49,0,0,0,0,.12m-32.85,3.47a.52.52,0,0,1-.06-.16l-.06.27.12-.11m-1,5.17h0v0l0,0a.07.07,0,0,1,0-.05m-.72.88h-.06l-.1,0h0a.41.41,0,0,0,.15,0h0m-.77-.74c-.31,0-.63,0-.93,0v0l.42.11.07,0a1.34,1.34,0,0,1,.39-.07h0l0,0m-.53-2.75a.4.4,0,0,1-.1-.12.33.33,0,0,1,0,.1l.1,0m.3-11.53v0h0m14.3-.7a.25.25,0,0,1,0-.19.93.93,0,0,0-.05.1.55.55,0,0,1-.17.17v.05a1.34,1.34,0,0,1,.23-.13M201.87,33l0-.1-.08.06.11,0m-.63-.42c0-.07,0-.14,0-.25h0a.62.62,0,0,1-.26-.25,3.39,3.39,0,0,0-.29-.53h0c0,.09,0,.17,0,.25a4.61,4.61,0,0,0,.59.8M198,24.85l-.4-.62h0c.09.15.19.3.27.46a1.83,1.83,0,0,1,.13.16m-1-1.62a.61.61,0,0,0-.07-.1h0l.08.09m-.29-.48h0a0,0,0,0,1,0,0m-.07,1.11-.12-.12s0,0,0,0a.41.41,0,0,1,.06.11l.08,0m-2.24-1.36h0v0l0,0m6.25-2.45-.26.23a1.11,1.11,0,0,0-.08.3.8.8,0,0,1,.23-.42s.07-.06.1-.1h0m-.37.78h0a0,0,0,0,0,0,0h0v0M254.43,34.6a5.62,5.62,0,0,0,0,.58,1.14,1.14,0,0,0,.15-.23c-.06-.12-.11-.24-.17-.35m-.33,1.2c0,.15.05.3.08.44a2.57,2.57,0,0,1,1.17,2.07.44.44,0,0,1-.34.4,2.3,2.3,0,0,1,.3.71c.26,1.14-1.28,1.48-1.83.6a2.89,2.89,0,0,0-.32-.42,9.91,9.91,0,0,0-2.79-.14,17.21,17.21,0,0,1-3.08,3.88,1.42,1.42,0,0,1-2.21-.56c-.14.11-.28.23-.43.33a.62.62,0,0,1-.91-.78c.1-.21.21-.41.32-.61a.83.83,0,0,1-.58-.24,1,1,0,0,1-1.18.26l-.15.23a.27.27,0,0,1-.07.08,1.62,1.62,0,0,1-1.11,2.1c-2.18.48-4-.2-5.86-1a.82.82,0,0,1-.42.71,1,1,0,0,1-.4.34c-5.09,2.35-10.54,3.73-15.79,5.66a.94.94,0,0,1-1.19-.48A.93.93,0,0,1,216,48.17c-.44.33-.89.67-1.35,1a.87.87,0,0,1-.92,0c-.36.32-.71.64-1.08.94a.91.91,0,0,1-1.46-1c.08-.21.18-.4.27-.61q-.55.63-1.14,1.23a.87.87,0,0,1-1.4-.21l-.26.27a.86.86,0,0,1-1.4-.58c-.09.12-.18.25-.28.37-.58.74-1.5-.1-1.39-.81l.06-.26c-.2.2-.38.41-.59.6-.51.43-1.5,0-1.32-.74a1.55,1.55,0,0,1,.08-.23c-.14.12-.28.25-.44.37a.8.8,0,0,1-1.28-.33l-.26.25c-.41.41-1.35.32-1.34-.42a10.76,10.76,0,0,1,.17-1.7,11.11,11.11,0,0,1-2.39,1.19c-.45.17-1-.43-.57-.81.12-.13.26-.25.39-.38l-.38.13a.51.51,0,0,1-.66-.28c-.48.22-1,.43-1.46.63.17.72.31,1.44.47,2.15a.32.32,0,0,1-.1.31,1.38,1.38,0,0,1,.44.33.25.25,0,0,1,0,.25.69.69,0,0,0-.05.13.36.36,0,0,1-.15.15,1.07,1.07,0,0,1,0,.59.18.18,0,0,1-.33,0,2.24,2.24,0,0,1-.1-.63l0,0a.23.23,0,0,1-.14.11,2.11,2.11,0,0,1-1,0c-.29-.08-.18-.51.11-.5l.6,0a.64.64,0,0,0,.11-.2c0-.09.15-.09.17,0a.54.54,0,0,1,0,.22h0a.18.18,0,0,1,.14-.11h0a1.55,1.55,0,0,0-.06-.23.34.34,0,0,1-.26-.11.33.33,0,0,1-.55,0,11.5,11.5,0,0,1-.64-1.75l-.06-.14c-.74.27-1.49.52-2.26.72a.63.63,0,0,1-.51-.09.8.8,0,0,1-.8-.38l-.31.11c-.87.37-1.5-1.09-.67-1.51,1-.52,2-1,3.1-1.48a.88.88,0,0,1,.39,0v0a4,4,0,0,1-.43-1.53.8.8,0,0,1,.17-.83,2.26,2.26,0,0,1,.68-.81h0A47.43,47.43,0,0,0,196,36.94v0a7.83,7.83,0,0,1-1.23-1.34,6.67,6.67,0,0,1-2.35-.59,2.87,2.87,0,0,0-.76.33c-.22.44-.4.9-.61,1.36a4.78,4.78,0,0,1-.52,1.6.2.2,0,0,1-.33,0,1.94,1.94,0,0,1-.13.54.17.17,0,0,1,.19.19,3,3,0,0,1-.16.59c-.06.16-.23.34-.43.26s-.53-.2-.79-.32a.13.13,0,0,1-.09,0l-.15-.05a.2.2,0,0,1-.29.25,9.58,9.58,0,0,1-2.76-2.45.79.79,0,0,1-.22-.09,39.51,39.51,0,0,1-4.38-3.6A42.09,42.09,0,0,1,176,29.36a.07.07,0,0,1,.08-.1c3.21,1.61,5.77,4.28,8.8,6.19l.29-.09c.25-.08.38.2.31.4l.17.14.36.21a.57.57,0,0,1,.31.38,9.64,9.64,0,0,1,1.22,1.29,11.73,11.73,0,0,1,1.33.11.35.35,0,0,1,.33,0h0s.05,0,0,.05a.22.22,0,0,1,0,.18.28.28,0,0,1,0,.18.37.37,0,0,1-.07.14l.28-.06s0,0,0-.06l0-.09a.32.32,0,0,1-.16-.29h0a.47.47,0,0,1-.21-.45,6,6,0,0,1,.14-1.12c-.15,0-.3-.12-.44-.18a4.24,4.24,0,0,1-1-.56.47.47,0,0,1-.67-.08,7.37,7.37,0,0,1-.94-3.25,7.05,7.05,0,0,1,0-2,.49.49,0,0,1-.18-.51c.25-.95,1.56-1.39,2.42-1.52a2.81,2.81,0,0,1,1,0,4.35,4.35,0,0,0,.59-1.13l0-.06a.21.21,0,0,1-.18-.11.91.91,0,0,1-.11-.16.23.23,0,0,1-.16-.17l0-.11c-.13-.18-.25-.37-.37-.56l-.29-.22a.85.85,0,0,1-.42,0c0,.12,0,.25,0,.36s-.21.15-.29.06a.83.83,0,0,1-.18-.42h0s0,.06,0,.09a.12.12,0,0,1-.08.1,2.44,2.44,0,0,1,.1.24c.06.15-.11.28-.22.16a1.13,1.13,0,0,1-.17-.23.26.26,0,0,1-.46.05,2.17,2.17,0,0,1-.34-1,3.27,3.27,0,0,1-.21-1.58,2.35,2.35,0,0,1,.17-.92c-.19,0-.24-.32,0-.35h.11a.14.14,0,0,1,.09,0,1.53,1.53,0,0,1,2.18-.94h0a.17.17,0,0,1,.16.05l.05.06a2.07,2.07,0,0,1,.8.81,2.21,2.21,0,0,1,.51,1.78c.07.16.13.32.18.47a.22.22,0,0,1,0,.08.92.92,0,0,1,.31.26,1.75,1.75,0,0,1,.16.25.08.08,0,0,1,0,0,6.18,6.18,0,0,1,.9,1.48v0a8.23,8.23,0,0,1,2.74,3,33.16,33.16,0,0,1,1.47,3,3.45,3.45,0,0,1,.41.64,5.31,5.31,0,0,1,.47.84.16.16,0,0,1,0,.19s0,.08,0,.13l.13,0h0a5.54,5.54,0,0,1,1.72.94,1.08,1.08,0,0,1,.21,1.39.38.38,0,0,1,.05.48.67.67,0,0,1-.06.12,1.6,1.6,0,0,1-.62,1.42,6.41,6.41,0,0,1-1,1.64l.2,0a.28.28,0,0,1,.2.12v0a.48.48,0,0,1,.09-.13c.18-.4.36-.8.57-1.18,0-.06.13,0,.12,0a2.72,2.72,0,0,1-.23.77l.14-.14c.2-.22.63-.05.54.27l0,.11a.28.28,0,0,1,0,.22,3.79,3.79,0,0,1-.3.71l0,.19.06.07c.1.22.21.44.32.66a.59.59,0,0,1,0-.13,8.37,8.37,0,0,1-.18-1,.26.26,0,0,1,.5-.13h0c.16.6.36,1.18.56,1.77a3.27,3.27,0,0,1,.56-.6,15.49,15.49,0,0,0-.72-1.48.62.62,0,0,1,0-.68,4.9,4.9,0,0,1,.41-1.38.14.14,0,0,0,0-.06c-.35-1.58-.44-3.13,1-2.64a5,5,0,0,1,1.25-1.36,5.36,5.36,0,0,1-.06-.69h0a1.47,1.47,0,0,1-1.32,0,2.93,2.93,0,0,1-1.23-1.17.28.28,0,0,1-.2-.22.62.62,0,0,1,0-.19,4,4,0,0,1-.42-1.9.26.26,0,0,1,.52,0c0,.11.06.24.1.37a2.77,2.77,0,0,1,.12-.41s0,0,0-.05a2.62,2.62,0,0,1-.13-.5c0-.06,0-.1.09-.11s-.05-.16-.07-.25a.18.18,0,0,1,.06-.21c-.11-.29-.23-.59-.35-.89-.53-.63-1-1.28-1.52-2A18.24,18.24,0,0,1,197,24.4a4.63,4.63,0,0,0-.83,0c-.27.14-.65.37-.66.37a.81.81,0,0,0-.14.12,1.13,1.13,0,0,0-.22.27,4.77,4.77,0,0,1,.13.51.36.36,0,0,1-.06.28,4.16,4.16,0,0,0,.8,1.7c.08.09-.06.23-.16.17a1.44,1.44,0,0,1-.25-.18h0a4.55,4.55,0,0,1-1.38-1.74,4.43,4.43,0,0,1-.63-2,0,0,0,0,1,0,0c0,.1.09.19.14.29s0-.05,0-.08a.2.2,0,0,1-.11-.19,4.48,4.48,0,0,1,.26-1.37.18.18,0,0,1-.08-.22c.14-.28.48-.37.76-.47a3,3,0,0,1,.64-.34,3,3,0,0,0,.57-.35v-.06a3.92,3.92,0,0,0-.13-.49l0,0c.15,0,.24.18.29.32a.15.15,0,0,1,.16.06c1.08,1.58,2.16,3.24,3.11,4.95a6.49,6.49,0,0,1,.55,1c.24.45.46.91.68,1.37,0-.07.05-.14.07-.2s-.07-.24-.1-.36,0-.16,0-.26a.58.58,0,0,1-.18-.81h0c.2-.28.42-.55.61-.83a5.43,5.43,0,0,1,.4-.93,3.66,3.66,0,0,1,0-1.32.1.1,0,0,1,.19,0s0,.07,0,.11a2.5,2.5,0,0,1,.06-.38l-.06,0a1.72,1.72,0,0,1-.76-.29,3.3,3.3,0,0,1-.32-.18.73.73,0,0,1-.2.48.26.26,0,0,1-.32,0c-.45-.32-.32-1.41-.31-1.91a2.82,2.82,0,0,1,.08-.65.12.12,0,0,1,0-.13.39.39,0,0,0,.08-.1,1.91,1.91,0,0,1,.57-.76.09.09,0,0,1,0-.07l.2-.15a.13.13,0,0,1,0-.09,1.23,1.23,0,0,1,.34-.28c.05-.14.1-.29.14-.43a2.43,2.43,0,0,0,0-.6,4.08,4.08,0,0,1-.55-.55.15.15,0,0,1,.14-.24,3.41,3.41,0,0,1,1.55.46.24.24,0,0,1,.32-.19,2.52,2.52,0,0,1,1.6,1.54c.28.33-.26.81-.58.55h-.14a1.87,1.87,0,0,1-.88-.43v0a.6.6,0,0,1,.16.19.33.33,0,0,1,.36.29,3.68,3.68,0,0,1,.07.58l0-.06c.17-.24.74-.13.69.2s0,.4,0,.6a1.82,1.82,0,0,1-.11.38,2.72,2.72,0,0,1-.42.81.36.36,0,0,1-.42.11,2.75,2.75,0,0,1-.15.36l.06-.07a.36.36,0,0,1,.26-.09.32.32,0,0,1,.18.06.17.17,0,0,1,.18,0l.39.18a.7.7,0,0,0,.27.06v0a.23.23,0,0,1,.41.11.47.47,0,0,1-.18.47.62.62,0,0,1,.47.27c-.05-.21-.1-.43-.13-.65a.19.19,0,0,1,.37-.09c.49,1.35,1.07,2.66,1.62,4a22.75,22.75,0,0,1,.89-2.33.66.66,0,0,1,.48-.46,2.53,2.53,0,0,1-.14-.49.37.37,0,0,0,0-.11,2.7,2.7,0,0,1-.28-.31.68.68,0,0,1-.52-.68c-.84-.85-.58-2.37,0-3.32a.32.32,0,0,1,.35-.15,2.32,2.32,0,0,1,1-1.45.45.45,0,0,1,.52,0l.53-.46a.26.26,0,0,1,.38.14,1.32,1.32,0,0,1,.09.41l.47,0a.63.63,0,0,1,.51.57c0,.26,0,.51,0,.77.56.55.41,1.64.17,2.53a2.75,2.75,0,0,1,.23,1.7.32.32,0,0,1,.17.09,5.07,5.07,0,0,1,.89,1.09c.33.35.65.72,1,1.09.18.2.37.4.56.59,0,0,0-.09,0-.13a.86.86,0,0,1,.74-.85,2.19,2.19,0,0,1,.18-1.26c-.35-.76.16-1.47,1-1.76a.58.58,0,0,1,.69.42,4.46,4.46,0,0,0,.7,1.74.45.45,0,0,1,.59.15c.18.34.36.68.55,1a6.49,6.49,0,0,1,0-.76c0-.25.35-.24.44-.06a3.85,3.85,0,0,1,.22.52l.19-.13c0-.14,0-.27-.08-.4-.15-.55-.3-1.09-.44-1.64l-.39-.48a.34.34,0,0,1,.15-.55l0-.05c0-.24.36-.36.43-.12a2.41,2.41,0,0,0,.08.25,11.88,11.88,0,0,1,1.89,2.29.28.28,0,0,1,.25-.22,2.77,2.77,0,0,1-.43-.66h0a.29.29,0,0,1,0-.1l.06.05c.47-.77.89-1,1.26-.55a.83.83,0,0,1,.15.17,4.52,4.52,0,0,1,.34.51,4.72,4.72,0,0,1,.27.61,1.68,1.68,0,0,1,.08.36,2.38,2.38,0,0,1,.23.81,1.6,1.6,0,0,1,0,.23,2.45,2.45,0,0,1,.42-.35c.65-.36,1.89-1.2,1.89-1.2s.28.29.61-.32,1.52-2.2,1.3-2.78l-.35.09a.07.07,0,0,1-.06-.12,4.41,4.41,0,0,1,1.34-.66,19,19,0,0,1,.41-2,9.28,9.28,0,0,1-.17-2.73,0,0,0,0,1,.09,0c.05.6.1,1.18.17,1.76a3.37,3.37,0,0,1,.13-1.08c0-.36.07-.71.13-1.07,0-.06.1,0,.1,0s0,.33,0,.5c.07-.16.14-.31.22-.46s0,0,0,0a6.4,6.4,0,0,0-.17,1c.11-.37.23-.73.33-1.07,0,0,.06,0,.05,0-.1.47-.16,1-.22,1.45,0,.32-.05.65-.07,1,.73.71,1.37,1.52,2.06,2.28h.33a.26.26,0,0,1,0,.52h-.1a31.75,31.75,0,0,1-1.93,3.4,34.66,34.66,0,0,0,.4,4.8.28.28,0,0,1,.11.08c.32.33.5.63,1,.75a4.08,4.08,0,0,0,.59.11c.81-.73,2,.43,1.81,1.35l.06.07a6.83,6.83,0,0,1,.4.75c.21,0,.29.09.49.13s.43.71.57.9a2.51,2.51,0,0,0,.48.44,1.16,1.16,0,0,0,.35.18s.09-.09.1-.12a1.24,1.24,0,0,0,.09-.33.35.35,0,0,1,.32-.26.7.7,0,0,1-.36-.47c-.19-.94,1-2,1.83-2.37a1.56,1.56,0,0,1,2.28,1.5.58.58,0,0,1,0,.33s0,0,0,0a.94.94,0,0,1,.09.12,1.29,1.29,0,0,1,1.32-.52,1.31,1.31,0,0,1,.36.08,1.92,1.92,0,0,1,1.12,1.13.12.12,0,0,1,.19.09l0,.18.19.08.28-.13a.65.65,0,0,1,.15-.46,2,2,0,0,1,.6-.56l.08,0a1.4,1.4,0,0,1,.48-.38,2.29,2.29,0,0,1,.46-.17,0,0,0,0,0,0,0c.2-.5.63-.46.95-.2.12,0,.19.15.31.19s0,0,0,0c.62,0,.76,1.16.07,1.23v0c.15.27.29.55.43.82a4.48,4.48,0,0,0,.08-.64.15.15,0,0,1,.2-.12A19.73,19.73,0,0,1,249,27.14a.16.16,0,0,1,.31.1c-.24,1.65-.5,3.43-.92,5.11a.21.21,0,0,1,0,.17c0,.1,0,.2-.08.3l0,0a1.56,1.56,0,0,1,.73-.22,1.23,1.23,0,0,1,1.13.74.9.9,0,0,1,.59.07.64.64,0,0,1,.49.06l.25.14.31,0c0-.1,0-.2,0-.3s0,0,0,0,.1.19.14.29h0a.43.43,0,0,1,.37.14.37.37,0,0,1,0-.12c0-.27.38-.34.51-.12A3.73,3.73,0,0,0,254.17,35a6.07,6.07,0,0,0-.08-1c-.14-.26-.29-.53-.42-.8a.36.36,0,0,1,0-.1.86.86,0,0,0-.4-.11c-.35.08-.3-.53,0-.4s.39,0,.54.18,0,0,0,0a.29.29,0,0,1,.34,0,7.16,7.16,0,0,1,1.48,2.2c.3.39-.39,1-.71.52l-.12-.18,0,.08a.58.58,0,0,1-.71.36m-1.94-2.86c-.12-.09.05-.25.16-.16s0,.25-.16.16" style="fill: #1d1d1b"/>
    <path d="M170.68,20.86h0m-1.22,31.9c-.08-.07,0-.17.11-.11.26.22.55.41.8.64a0,0,0,0,1,0,.05,3.28,3.28,0,0,1-.88-.58M158.15,39.65c.09,0,.07.15,0,.15a1.08,1.08,0,0,1-.18,0,.07.07,0,0,1,0-.14,1.15,1.15,0,0,1,.18,0m-15-21.06a.1.1,0,0,0,.05.06.08.08,0,0,0,0,.07,1.85,1.85,0,0,0,0,.23.61.61,0,0,1-.05-.36m.21,1,0,.07a3.06,3.06,0,0,0-.15,1.12l-.06-.15c0-.1-.07-.21-.12-.32v0h0a.59.59,0,0,1,0-.08.38.38,0,0,0-.08-.09,1.21,1.21,0,0,0,.43-.52m.53,1.6a.14.14,0,0,1,0-.06h0a.09.09,0,0,0,0,.05m1.23,1.68a.22.22,0,0,1,0,.08h0l0-.07m-.93.61,0,.06h0l-.05.06s0,0,0,0a.36.36,0,0,0,0-.09h0m2.87-.15a5.16,5.16,0,0,0-1,.06s0,0,0,0l.25-.19a3.64,3.64,0,0,1,.67.16m1.79,17h-.05l0-.09s0,.06,0,.1M154.72,34h0m4,15.28a.29.29,0,0,0-.21-.35h-.09a.18.18,0,0,0,.07-.05,3.88,3.88,0,0,0,.48.3c-.08-.06-.2,0-.22.11h0m5.35,2.64a1,1,0,0,1-.64-.26c.06-.12.11-.24.16-.36.12.18.27.35.4.52l.08.1m4.06-1.37.08.16-.17-.15a.22.22,0,0,0,0-.14.54.54,0,0,1,.07.13m.13.34a.09.09,0,0,0,0-.05,1.3,1.3,0,0,1,.08.17l-.09-.12m.6-5.22h0M174,31.1l-.06,0-.14,0-.05,0,.25.07M171,30.19a1.75,1.75,0,0,0,.48.21h0a.09.09,0,0,0,0,.07l-.14,0c-.22-.13-.43-.27-.63-.41l.27.14m-7.72-6.51h-.06l.1,0,0,0h-.07m3.3-3.79.27.07a4.37,4.37,0,0,1-.28.71h-.16a2.08,2.08,0,0,0,.17-.79m-5.79,2.22a6.18,6.18,0,0,1-1.49.14,14.73,14.73,0,0,1,1.49-.14m-6.65-2-.07-.11a3.28,3.28,0,0,1,1.54-.55,3.7,3.7,0,0,1,.56,0c-.28,0-.54.1-.76.15a4.8,4.8,0,0,0-1.27.48m-9.72,4a0,0,0,0,1,0,0h0l0,0m3.55-.68-.26-.13.28.07.07.08-.09,0M151,35.51v0h0s0,0,0,0m11.86,15.81a1.8,1.8,0,0,1,0-.22h.06c0,.07,0,.14,0,.21m1.34,1.89-.72-.24a.13.13,0,0,0,0-.06l.35.13.36.17m-2.64-27.27a.66.66,0,0,0,.21,0s0,0,0,0l-.19-.07m-.11-.09s.06.07.1.08l-.13-.05,0,0m3.32-2.94Zm3.35-2.56-.06,0-.09,0a.34.34,0,0,0-.37.15,1,1,0,0,0,0,.1h0a.18.18,0,0,0-.1.17.37.37,0,0,0-.19-.11H167a2.15,2.15,0,0,0,.13-.61l1,.31m-2,1a.43.43,0,0,0,0-.19h0a.42.42,0,0,0,0,.12.16.16,0,0,0,0,.15l-.1.06a0,0,0,0,0,0,0,1.39,1.39,0,0,0,.06-.13m-7.92.18-.27.09a5.67,5.67,0,0,0-1-.15,6.34,6.34,0,0,1,1.23.06m-13-4.57a6,6,0,0,1,.73,0,5.39,5.39,0,0,1-.67,0h0l0,0m-.87.19h0l.08,0-.11.08-.2.09.18-.14m-.82,1.67v0c0,.05.08.05.07,0a.5.5,0,0,1,.1-.35s.49-.2.62-.07,0,.27,0,.38c-.08.27-.19.53-.27.79h0a.76.76,0,0,1-.53-.77m.29,2h0v-.06s0,0,0,0l0,0m.25,0h0M147.64,23c-.31-.13-.62-.26-.93-.41a.93.93,0,0,0-.1-.39c-.34-.68.39-1.23,1-1.05l0,0v0a1.55,1.55,0,0,0,.1.52,2,2,0,0,0-.28-.19.19.19,0,0,0-.26,0c-.29.5.1,1,.45,1.43M166,44.88c-.12.2-.23.4-.34.61a2.72,2.72,0,0,1,.26-.6H166m3.38-1.73s0,0,0,0v0a.29.29,0,0,1,0,.09m7.37-6.47-.9.11.12-.06a.23.23,0,0,0,.11-.11.9.9,0,0,1,.67.06m-1.37-.38h0l0,0v0m-1.23-1,.6.1-.17.06-.4-.12,0,0M167.45,22h0l0,0a.25.25,0,0,0-.16-.1,1.54,1.54,0,0,0,0-.3.09.09,0,0,0,.08-.11v0h0a1,1,0,0,0,0,.25.27.27,0,0,0,.18.24m0-1.1h0l-.06.15a.27.27,0,0,1-.08-.07l0,0a.13.13,0,0,0,.09,0m-3.61.8h0m-18.13-4.32h0a0,0,0,0,0,0,0h0m-1.22.82,0,0h0m2.58,2.76a2.11,2.11,0,0,0-.63.44.94.94,0,0,0,.06-.15.23.23,0,0,0,.17-.12h0a1.38,1.38,0,0,0,.31-.17h.09m.48,1.27.07.08a0,0,0,0,0,0,0,.93.93,0,0,0-.05-.1m.32.48-.11-.14h0a.71.71,0,0,1,.08.15m.64.64,0,0h0s0,0,0,0m10.21,24.8c.07-.24.13-.49.19-.75A23.71,23.71,0,0,0,161,44.41a2.9,2.9,0,0,0,.41-.06c0,.12,0,.25,0,.37s.23.21.26.05h0a.12.12,0,0,0,.07.05,2.68,2.68,0,0,0,1.09-.13,9.47,9.47,0,0,0,1.48-.48h0s0,0,0,.07a.39.39,0,0,0,.13.17c-.25.66-.55,1.3-.81,2a20.59,20.59,0,0,0-1,2.24c-.08.21-.15.42-.22.64-.28-.08-.55-.15-.82-.24-1-.32-1.92-.67-2.9-.93m13.12-11.39h0m-18.72-16,.1-.07-.09.09s0,0,0,0m-6.8.8h0a.41.41,0,0,0-.07.11.28.28,0,0,1,0-.09l.07,0m-.94.15a.22.22,0,0,0,0-.18.25.25,0,0,0,0-.07.31.31,0,0,0,.26.17v.08s0,0,0,0a.29.29,0,0,0-.32,0h0m2.51-.2v0h0m.41,1.43s0,0,0,0h0v0m1.16,1.4h0m.8-1a.75.75,0,0,0,.07-.12l0,.12h0m16.05,13.25a.24.24,0,0,0,0,.08h0a.19.19,0,0,1,0-.08m-.67,7.16,0,0,0,0h.07m-4.14-1.38h0M165.64,41c0,.07,0,.14,0,.21h0V41m-2.32-9.54c.05.1.11.19.16.28l0,0c0-.1-.08-.2-.13-.3M146,19.08h0l-.05.06s0,0,0,0l0,0m.58-.55a.65.65,0,0,0,0-.13,1.85,1.85,0,0,0,.11.42l-.05-.06a.54.54,0,0,1-.1-.23m-.45,1.61s0-.06,0-.09,0,0,0,0l.07-.05c0,.06-.05.12-.07.17m1-.48c0-.07,0-.14,0-.21a.46.46,0,0,0,.07.07.36.36,0,0,0,0,.09.16.16,0,0,0-.09.05m20.75,15.22a.06.06,0,0,0,0,0l0,0h0m-5.06,8.93v0l.3,0-.3,0m-1.05.45.09,0,.17.17c.07.07.19-.06.12-.13l-.1-.11.07,0,.18.08a.34.34,0,0,0,.35-.07h.15c-.35.14-.71.26-1,.43a0,0,0,0,0,0,0c0-.11,0-.22,0-.33m-12.7-23.62h0v0m22.51,16,0,0,.1,0,0,0h-.06M143.9,17.6h0a.26.26,0,0,0-.07.17l-.06,0a.47.47,0,0,1,0-.1.44.44,0,0,1,.08-.11m4.44,9.9h0l0-.06h0l0,.05m27.75,8.15a.26.26,0,0,0,.17.24,4,4,0,0,0,.82.29.17.17,0,0,0,0,.07l-1.65-.55a.48.48,0,0,0-.08-.22h0l.75.17m-17,13.53a.12.12,0,0,0-.05,0l.23.1h-.14l0,0m-.87-.15-.06-.06a.34.34,0,0,0,.15,0,.47.47,0,0,0-.06.09h0M143.41,19.34l0,.05s0,0,0,0,0-.06,0-.08m-.27-.89a.14.14,0,0,1,0,.06.09.09,0,0,0,0,0c-.25.2-.1.65.05.87a.1.1,0,0,0,.12,0,.09.09,0,0,1,0,.05.07.07,0,0,0-.06,0,1.72,1.72,0,0,1-.32.34,1,1,0,0,0-.25.14.09.09,0,0,0,0,.15h.08c-.06.14.07.43.12.57a1.48,1.48,0,0,0,.3.69s0,0,0,.06a1.51,1.51,0,0,0,.15.37s.05,0,0,0a1.43,1.43,0,0,1-.09-.27h0s0,0,0,.05,0,.1,0,.15,0,0,0,0a1.19,1.19,0,0,0,.08-.2.77.77,0,0,1,.07-.16,2.93,2.93,0,0,1,.19.4s.07,0,.08,0a1.5,1.5,0,0,0,0-.43.56.56,0,0,1,.05.29c0,.06,0,.1.11.07a.32.32,0,0,0,.19-.36.53.53,0,0,0,0-.17l.2,0h0s0,0,0,0a.28.28,0,0,0,0,.13.5.5,0,0,1,0,.12c0,.06,0,.1,0,.16a.1.1,0,0,0,.05.06s.05.05.08,0,.09,0,.12-.09a.26.26,0,0,0,0-.08.89.89,0,0,0,0-.15l.07,0,.2.11a.87.87,0,0,0,0,.45.06.06,0,0,0,.06.06c0,.12.05.26.07.39a1.51,1.51,0,0,1-.18.26,1.2,1.2,0,0,1-.33.28c0-.1-.18-.11-.19,0a.26.26,0,0,0,0,.09l0,0a.38.38,0,0,1,0-.15c0-.07-.11-.13-.14,0a1.36,1.36,0,0,0-.06.29h0a.19.19,0,0,0,0-.08c0-.06-.07-.09-.11-.06l0-.08c0-.07-.13-.05-.14,0a2.2,2.2,0,0,0,.12.84c.07.18.14.42.33.49h0a.06.06,0,0,0,.09,0A2.81,2.81,0,0,1,145,24a5.91,5.91,0,0,1,2.21-.25,6.77,6.77,0,0,1,1.28.27l.14.07c.09.12.19.32.29.48a7.36,7.36,0,0,1-.14,2,2,2,0,0,1-.21.41v0a1.3,1.3,0,0,0-.05-.8c0-.07-.12-.05-.13,0s0,0,0,.07,0,0,0,0v.07a4.72,4.72,0,0,1-.84,1.73,2.29,2.29,0,0,0-.52,1,1.24,1.24,0,0,0-.14.18,0,0,0,0,0,.06.06l.14-.11a.17.17,0,0,0,.2,0,3.16,3.16,0,0,0,.34-.38l.29-.2a.18.18,0,0,0,.27,0l.36-.4a10.09,10.09,0,0,1-1.38,2.17s0,.05,0,0a5.62,5.62,0,0,0,1.52-1.91.28.28,0,0,0,0,.13c0,.05,0,.09,0,.09a.25.25,0,0,0-.14.23,7.71,7.71,0,0,1-1,1.26,0,0,0,0,0,.06.07,5.45,5.45,0,0,0,.78-.66l-.26.39a.05.05,0,0,0,.08.06,8.68,8.68,0,0,0,1-1.21.21.21,0,0,0,.19-.17l.06-.23h0a3.16,3.16,0,0,0,.38.87.09.09,0,0,0-.05.11,3.06,3.06,0,0,0,.75,1.16c0,.53,0,1-.06,1.57a20.69,20.69,0,0,0-.66,3.93l-.27-.14a.16.16,0,0,0-.09,0,.26.26,0,0,0-.27,0h-.23a.1.1,0,0,0,0,.17l.12.09c0,.06,0,.13,0,.2h0c0-.06,0-.12,0-.19a.09.09,0,0,0-.12-.06c0-.14-.08-.28-.13-.41s0,0,0,0a2,2,0,0,0,0,.69c-.14,1-.16,2-.28,3l-.24.77a2.38,2.38,0,0,0-1.09.16l-.11,0a2.15,2.15,0,0,0-.71,0l-.16,0a.64.64,0,0,0-.57.19.59.59,0,0,0-.14.31.5.5,0,0,0,0,.12.61.61,0,0,0-.05.12c0,.09.09.13.14.06a1.94,1.94,0,0,1,.23-.27l.1-.07.28,0c.16,0,.31.07.47.1a.7.7,0,0,0-.22.35.41.41,0,0,0,.1.41.1.1,0,0,0,.14,0,1.83,1.83,0,0,1,.24-.31,7.6,7.6,0,0,0,1.15.17l-.13.12a9,9,0,0,0-.77.87.1.1,0,0,0,.12.15l1.09-.67.32-.18a.5.5,0,0,0,.28-.1.74.74,0,0,0,.21,0,.69.69,0,0,0,.19-.07l.11.06a.09.09,0,0,0,.11,0h0a1.45,1.45,0,0,0,.26.07.15.15,0,0,0,.11-.27l0,0s.07,0,.08-.05l.07-.07a.16.16,0,0,0-.05-.24l0-.05c.09-.26.14-.53.21-.8a1.28,1.28,0,0,0,.34-.6c.52-.21,1.1-1,.81-1.61l.11-.12.21-.06a.26.26,0,0,0,.2-.31l.13-.09c.08-.07,0-.21-.11-.17a.19.19,0,0,0,0-.07,4.51,4.51,0,0,0-1.21-.76.2.2,0,0,0,.08-.1s0,0,0,.06h0a.5.5,0,0,1,.21-.39c.21-.11.51-.2.6-.46a.22.22,0,0,0-.11-.22.46.46,0,0,0-.26,0c0-.18,0-.37,0-.55a.09.09,0,0,0,0-.07c0-.12,0-.24.05-.35.08-.4.2-.78.31-1.17s.22-.64.34-1a8.68,8.68,0,0,0,1.89,1.3,3.17,3.17,0,0,0,1.42,1,1.38,1.38,0,0,0,.8.41s.06-.05,0-.07l-.27-.21.23.17.34.23a11.86,11.86,0,0,1,.84,1.76c.09.21.45.06.38-.15a8.49,8.49,0,0,0-.46-1.14,3.1,3.1,0,0,0,1.53.47c.07.17.13.33.19.5l0,.12c-.16.68-.34,1.34-.49,2a2.71,2.71,0,0,0-.1,1.49,0,0,0,0,0,.08,0c.07-.13.14-.27.2-.41l-.12.38-.36.76a.21.21,0,0,0,0,.15c-1,1-2.22,1.93-3.29,2.91-.08.08,0,.18.13.13a14.59,14.59,0,0,0,3.89-2.73.61.61,0,0,1-.05.12.06.06,0,0,0,0,.06,31.74,31.74,0,0,1-2.78,2.11.07.07,0,0,0,0,.11q-.62.35-1.2.72a.07.07,0,0,0,.07.12c1.37-.74,3-1.16,4.28-1.9,0,.12-.06.23-.08.34a1.6,1.6,0,0,0-.14.42.09.09,0,0,0,.08.1.43.43,0,0,1,0,0c-.07.28-.13.56-.19.84s-.28.7-.4,1.05a.43.43,0,0,0-.11.12,4.7,4.7,0,0,0-.34,1.47.74.74,0,0,0-.45.49.11.11,0,0,0-.19,0,1.7,1.7,0,0,0,.11,1.52.24.24,0,0,0,.42.06l.14.16-.08,0c-.29.06-.25.45,0,.54a16.5,16.5,0,0,0,4.2.52,5.79,5.79,0,0,0,0,.72,1.69,1.69,0,0,0-.27-.1.18.18,0,0,0-.2.29,1.43,1.43,0,0,0,.53.42,0,0,0,0,1,0,0,1.36,1.36,0,0,0-.35,0,.11.11,0,0,0-.08,0,2.11,2.11,0,0,1-.3-.16c-.21-.11-.42.18-.21.31a4.93,4.93,0,0,0,.83.41h0a.17.17,0,0,0,.06.16l.12.08a.09.09,0,0,0,.06,0l.06,0a.09.09,0,0,0,0,.13,14.63,14.63,0,0,0,4,2c1.19.45,2.36,1,3.59,1.34l.13.11a2.21,2.21,0,0,0,.84.51h0a.2.2,0,0,0,.09.06s0,.08.08.1a.14.14,0,0,0,.13,0l0,0a.15.15,0,0,0,0-.17,1,1,0,0,0-.48-.53l-.09-.08a.06.06,0,0,0,0,0c-.05-.41-.5-.6-.86-.72a7.4,7.4,0,0,0-.92-.5,18.41,18.41,0,0,0-2.6-1.58,15.68,15.68,0,0,1-1.33-.86.19.19,0,0,0,0-.14,4.81,4.81,0,0,0-.81-.75c-.2-.19-.39-.41-.61-.59l0-.12s0,0,0,0a1.62,1.62,0,0,1,.1-.18l1,.14a.21.21,0,0,0,.16.14,3.41,3.41,0,0,0,1.24,0,2.6,2.6,0,0,0,.4,0,5.26,5.26,0,0,0,.88.63,4.89,4.89,0,0,1,1.22,1.09.16.16,0,0,0,.13.07c.06.06.11.12.17.17.21.17.43.33.63.5s.24,0,.17-.15a2.46,2.46,0,0,0-.38-.41,3.75,3.75,0,0,1-.64-1.2c0-.08-.09-.18-.14-.26a.94.94,0,0,0,.31.26,2.64,2.64,0,0,0,.53.87,2.36,2.36,0,0,0,.88.54c0,.07,0,.16.08.16a1.21,1.21,0,0,0,.38,0,.17.17,0,0,0,0-.33,1.66,1.66,0,0,1-1-.65,4.72,4.72,0,0,1-.81-1,.06.06,0,0,0-.08,0,3.42,3.42,0,0,0-.21-.43,2.15,2.15,0,0,0-.42-.58c.34-.2,0-.74-.32-.52a1.6,1.6,0,0,0-.42.44.2.2,0,0,0,0,.11c-.43,0-.86.07-1.29.08h-.28a2.39,2.39,0,0,0-.37-.15.41.41,0,0,0-.13-.1l-1.11-.33c.38-.8.72-1.63,1.08-2.41.09-.18.17-.37.25-.55a4.67,4.67,0,0,0,.84-1.82,4.94,4.94,0,0,1,.55.15,1.29,1.29,0,0,1,.34.25.1.1,0,0,0,.1,0,3.3,3.3,0,0,1,.47.52l0,0a.18.18,0,0,0,.16.29l0,0c-.22.28.18.65.41.37a1.8,1.8,0,0,1,.2-.19v.08a.05.05,0,1,0,.1,0v-.15a.88.88,0,0,1,.22-.1h0a.06.06,0,0,0,.11,0,.07.07,0,0,1,0,0c.18-.08.16-.28.06-.42s0-.25,0-.38l.12-.08c.07.27.13.53.19.81,0,0,.1,0,.1,0,0-.3-.07-.6-.12-.89a.51.51,0,0,0,.15-.35.11.11,0,0,0,0-.08,4.63,4.63,0,0,0-.12-.9.74.74,0,0,0,.46-.47.77.77,0,0,0-.51-.94h-.08a2.12,2.12,0,0,0,0-.58,8.16,8.16,0,0,0-.51-3.15c-.1-.26-.22-.5-.34-.75a8.84,8.84,0,0,0-.71-1.53c.44.09.89.17,1.34.24a10,10,0,0,1,1.43.93,2.48,2.48,0,0,1,.19.26.15.15,0,0,0,.27-.12.23.23,0,0,0,.09-.18h.07a.28.28,0,0,0,.24-.42l.09-.08a2.94,2.94,0,0,1,.51-.05l.12.05a.08.08,0,0,0,.05,0l.18,0a10.94,10.94,0,0,1,2.13,1,.16.16,0,0,0,.25-.13.37.37,0,0,0,.25-.2c.06-.12.12-.24.19-.36a.56.56,0,0,1,.21-.09,10,10,0,0,0,2-.4.3.3,0,0,0,.28.19l.1.08c.08.07.22,0,.15-.13l0,0a4.77,4.77,0,0,1,.47-.13l1.57.34c.06,0,.09,0,.09-.09a.34.34,0,0,0,.21-.37c.64.25,1.27.52,1.88.83,0,0,.09-.06,0-.09a23.74,23.74,0,0,0-3-1.58A.29.29,0,0,0,179,36h0a23.66,23.66,0,0,0-2.64-.95,5.11,5.11,0,0,1,.55,0,19.5,19.5,0,0,0,2.74.24.06.06,0,0,0,0-.11,9.76,9.76,0,0,0-1.87-.59h0c.1,0,0-.18-.05-.18a20,20,0,0,1-2.44-.15l-.19-.06A.27.27,0,0,0,175,34c-.79-.45-1.55-1-2.37-1.34a7,7,0,0,0,.92-.09l.07,0a20.21,20.21,0,0,0,3.34-.77c.07,0,0-.13,0-.11l-.17,0s0,0,0,0a13,13,0,0,1-1.62.26,2.11,2.11,0,0,0,.31-.21,5.61,5.61,0,0,0,.58,0,.15.15,0,0,0,.14-.12l.17-.05s0,0,.05,0a1.19,1.19,0,0,0,.46-.06.08.08,0,0,0,0-.15l-.71.05a.19.19,0,0,0-.09-.05l-.29-.08a.28.28,0,0,0-.18-.17h-.14s-.08.06-.2.07h0a9.47,9.47,0,0,0-2.33-.58,17.53,17.53,0,0,0-1.69-.68.09.09,0,0,0-.11,0l-.21-.13a7.23,7.23,0,0,0-.87-.46,8.83,8.83,0,0,0,4.78-.35.06.06,0,0,0,0-.12,14.42,14.42,0,0,1-3.83,0,5.84,5.84,0,0,0,3.37-.49s0,0,0,0c-1,.46-2.14.08-3.14-.08a20.18,20.18,0,0,1-4-1c-2-.78-3.86-2.3-6.13-2.12a.25.25,0,0,0-.26.23l-.22-.07s0-.06,0-.06h-.06l-.14-.1a4.78,4.78,0,0,1-.93-1.05,4.18,4.18,0,0,0,1.15-.15,1.34,1.34,0,0,0,.39.16,1.19,1.19,0,0,0,.53,0,.37.37,0,0,0,.24.32.37.37,0,0,0,.62-.07h.05c.19,0,.37,0,.56-.07a4.17,4.17,0,0,0,.6-.1h0c.17,0,.35-.06.53-.1a.15.15,0,0,0,.19,0h.06c.13,0,.09-.26,0-.27h-.05s0-.09,0-.13a.42.42,0,0,0,.15-.17.87.87,0,0,0,.07-.17.36.36,0,0,0,0,.09.78.78,0,0,0,1.11.34.4.4,0,0,0,.22-.38.49.49,0,0,0,.39-.12,1,1,0,0,0,.25-.45.75.75,0,0,1,.28-.52.41.41,0,0,0,.11.07s0,0,0,0-.05.13-.08.19A.24.24,0,0,0,167,23a1.88,1.88,0,0,0,1-.36.2.2,0,0,0-.18-.34,1.08,1.08,0,0,1-.41.19,2.11,2.11,0,0,0,.19-.23l0,0a.21.21,0,0,0,.33,0l0-.07a.88.88,0,0,0,.27.16.41.41,0,0,0,.51-.23,1.31,1.31,0,0,0-.05-.85,1.17,1.17,0,0,0,.48-.12h.13l.18-.07a.25.25,0,0,0,.13-.21c.21,0,.41.09.62.12h.07a.25.25,0,0,0,.31-.08l0,0v0a.18.18,0,0,0,.3-.2l.07,0a.18.18,0,0,0,.2-.14c0-.22-.09-.3-.26-.39s-.23.08-.15.17v0l-.09,0a.12.12,0,0,0-.07.07.28.28,0,0,0-.16-.14l-.11,0,0,0-.12,0h-.07a6.45,6.45,0,0,1-1-.32c1.2-1.71,9.52-13.64,11.67-17.08a11.06,11.06,0,0,0,.36-1.28c0-.17-.5.28-.5.28l-12.8,17.55,0,0-.4-.15s0,0,0,0a.33.33,0,0,0-.14-.36c-.1-.07-.16,0-.25,0a.28.28,0,0,0-.35-.08,1.92,1.92,0,0,1-.25.12.3.3,0,0,0-.23.11.42.42,0,0,0-.09.84l.17,0a4.29,4.29,0,0,1-.37.85l0,0-.07,0a3.4,3.4,0,0,0,.26-.58c0-.11-.12-.15-.18-.07a3.78,3.78,0,0,1-.38.48.76.76,0,0,0,0-.15.33.33,0,0,0-.62-.11,6,6,0,0,1-.41.69h0a.1.1,0,0,0-.18,0c-.08.11-.15.23-.22.34l-.07.05a.27.27,0,0,0-.31-.24c-.66.08-1.31.2-2,.3a.24.24,0,0,0-.09.45.3.3,0,0,0,0,.1.57.57,0,0,0,0,.13.29.29,0,0,0-.32-.14l-.1,0h0l0,0-.09,0h0a.08.08,0,0,0-.07-.08,10.61,10.61,0,0,0-2.1-.15.27.27,0,0,0,0-.37,2.58,2.58,0,0,0-.86-.55l.27,0c.24,0,.31-.32.15-.44a.1.1,0,0,0,0-.12c-1.1-.55-2.49,0-3.63.1a.2.2,0,0,0-.13.07,1.78,1.78,0,0,0-.57.22l-.18.07a2.44,2.44,0,0,1,.51-.36,5.35,5.35,0,0,1,1.66-.47c.61-.08,1.52,0,2-.36,0,0,0,0,0,0h-.05l.18-.07s0-.08,0-.08c-.87,0-1.76-.37-2.64-.36,0,0,0-.07,0-.09a.19.19,0,0,0,0-.08c-.35-.68-1.67-.26-2.15,0a3.08,3.08,0,0,0-1.2,1.28.17.17,0,0,0-.06-.06.21.21,0,0,0-.24,0,1.86,1.86,0,0,0-.19.11h0l.05-.07a.23.23,0,0,0-.13-.3c0-.09-.15-.11-.2,0a.41.41,0,0,0,0,.09,3.31,3.31,0,0,0-1,1.39.13.13,0,0,0-.18.09,1.21,1.21,0,0,0-.05.18.25.25,0,0,0-.24.22c0,.05,0,.1,0,.15l-.16.06-.31-.13a2.82,2.82,0,0,1,.25-.49c.09-.13-.11-.3-.21-.18a2.93,2.93,0,0,0-.28.36,1,1,0,0,0-.07-.39,1.76,1.76,0,0,0,.74-1.78,3.16,3.16,0,0,0-.23-.78,3.45,3.45,0,0,0-.48-1.1s-.07,0-.05,0a2.39,2.39,0,0,1,.15.37,2.87,2.87,0,0,0-.62-.68h.17a.06.06,0,0,0,0-.11c-1.21-.4-3.08-1-4.37-.46a.47.47,0,0,0-.27.14s0,0,0,0l0,.05-.07.06,0-.09c0-.08-.09-.11-.14-.05-.19.29-.38.56-.58.84a1.64,1.64,0,0,0-.37.67c0,.07.05.11.11.11" style="fill: #1d1d1b"/>
    <rect x="252.08" y="24.51" width="313.89" height="60.64" style="fill: #fff"/>
    <rect x="252.08" y="25.01" width="313.89" height="60.64" style="fill: none;stroke: #1d1d1b;stroke-miterlimit: 10;stroke-width: 1.25px"/>
    <path d="M59.56,12.48a.11.11,0,0,0,.12,0,2.4,2.4,0,0,1,.11.23.11.11,0,0,1,0,0l-.22-.22a.76.76,0,0,1-.11-.14l.11.07M47.64,52.08c.09-.16.17-.33.24-.49,0,.12,0,.25,0,.37a.25.25,0,0,0,0,.15.77.77,0,0,0-.3,0m.11-3.41c0,.22.09.43.15.65a3,3,0,0,1,0,.52l-.05.12c0-.43,0-.86-.08-1.29m9.79-34.12h0m6.19,1.59,0,0a1,1,0,0,0-.16-.38.32.32,0,0,0-.45-.08l-.51-.38c.1-.17-.07-.36-.25-.35l0,0a10.09,10.09,0,0,0-1.69-1.51c0-.12,0-.23,0-.35a2.88,2.88,0,0,0-.09-.4.27.27,0,0,0-.07-.17h0a1,1,0,0,0-.17-.28.29.29,0,0,0-.11-.11A.6.6,0,0,0,60,12v-.05A.08.08,0,0,0,60,12l-.07,0h0v0l0,0,.07,0v0h0v0a0,0,0,0,0,0,0s0,0,0-.07a.28.28,0,0,0-.2-.37,1.11,1.11,0,0,0-.51.1h0c.09-.28.18-.55.28-.82a.09.09,0,0,0,0,0,.06.06,0,0,0,0,0v0l0-.06h0a.17.17,0,0,0-.07-.2.17.17,0,0,0,.18,0l0,0h0c0,.1-.08.21-.12.31a1.5,1.5,0,0,1-.19.38s0,.1.07.06a2.44,2.44,0,0,0,.39-.75.08.08,0,0,0,0-.09h0v0h0a.14.14,0,0,0,0-.17.13.13,0,0,0-.16-.06.54.54,0,0,0-.22.13.18.18,0,0,0,0,.22l0,.06a.16.16,0,0,0-.23,0,2.77,2.77,0,0,0-.41.9L46.32,2A25,25,0,0,0,44,.53L43.9.43l0,0h0L43.41.08s0,0,0,0l.11.11L43.15,0c0,.78,2.66,2.77,2.66,2.77L58.15,12.87c0,.11-.09.21-.13.32l-.13.37c-.15.23-.28.47-.41.71a.14.14,0,0,0,0,.09l-.06,0a.32.32,0,0,0-.08.12.15.15,0,0,1,0,.07.1.1,0,0,0,.1.16.05.05,0,0,0,0,0s.09,0,.13,0a1.08,1.08,0,0,0,.2-.16.23.23,0,0,1,.07-.14h0a3.45,3.45,0,0,0,.41-.59,1.11,1.11,0,0,0,.11-.16l.15-.22a1.18,1.18,0,0,0,.15.39,1.24,1.24,0,0,0,.16.19,11.92,11.92,0,0,0-.39,2.29c-.13.3-.24.6-.39.89s-.17.32-.28.49l-.08,0-.19.16s0,0,0,0-.05,0,0,0a.15.15,0,0,0-.1.17l-.13.19a.08.08,0,0,0,0,0l-.17.31h0s-.07,0-.07,0,0,.23,0,.35a1.76,1.76,0,0,0-.07.4,2.62,2.62,0,0,1-.19.49c-.22-.06-.44.19-.58.32a.27.27,0,0,0-.07.08h0a1.45,1.45,0,0,0-.32.37,4,4,0,0,0-.32.4l-.06.09-.08.09a.73.73,0,0,0-.34.12,2.94,2.94,0,0,0,.12-.59c0-.12-.11-.14-.19-.11s0-.1,0-.14A2.7,2.7,0,0,0,55,19a.08.08,0,0,0,0-.07.5.5,0,0,0,0-.12,1.44,1.44,0,0,0-.58-2s0,0,0,0l0-.06s0,0,0-.06,0,0,0,0l0-.05-.17-.27a0,0,0,0,0-.08,0A2.47,2.47,0,0,0,53.4,16s-.09,0-.08.08a2.08,2.08,0,0,0-1.15-.13.06.06,0,0,0,0,.12l.42.05a2.83,2.83,0,0,0-2,1.24,0,0,0,1,0,0,0,2.31,2.31,0,0,1,.78-.57,6.27,6.27,0,0,0-.89,1c0,.05,0,.12.09.08l.55-.53c-.19.24-.37.48-.54.73l-.28.17a14.45,14.45,0,0,1-1.54.73c-.62.24-2.11.84-2.45-.1a0,0,0,0,0,0,0c0,1.16,1.76.68,2.38.49a10.25,10.25,0,0,0,1.6-.68,6.68,6.68,0,0,0-1.41,1.63c-.62.56-1.28.94-2,.47h0c.45.56,1.14.37,1.69.07a0,0,0,0,1,0,0c-.19.2-.36.44-.56.64a1,1,0,0,1-1.67-.21h0c.21.51.45,1,1,1a3.28,3.28,0,0,0-.2.31,1,1,0,0,1-.2-.18,2.87,2.87,0,0,1-.47-.88,0,0,0,0,0-.09,0,2.18,2.18,0,0,0,.58,1.22.89.89,0,0,1-.61-.76s-.05,0-.05,0a1.12,1.12,0,0,0,.63,1c-.08.17-.15.35-.22.51s-.05.14-.07.21l-.08-.16A7.27,7.27,0,0,1,46,22.1s-.07,0-.06,0A5.79,5.79,0,0,0,46.43,24a6.19,6.19,0,0,0-.23,1.43.57.57,0,0,0,0,.14s0,0,0,0a4.1,4.1,0,0,0,0,.61s0,0,0,0a8.62,8.62,0,0,1,.11-.87,2,2,0,0,1,.31-.33,5.86,5.86,0,0,0,0,.94s0,0,0,0c0-.36.08-.71.15-1.07a7.57,7.57,0,0,1,1.19-.54l.51-.17a3.71,3.71,0,0,0-.46.88c0,.05.06.08.08,0a8.65,8.65,0,0,1,1.21-1.54c.29-.29.61-.55.92-.82,0,.18,0,.35,0,.53-.22.33-.57.5-.81.81,0,0,0,0,0,0a2.47,2.47,0,0,0-1,2.08.09.09,0,0,0,0,.05,2,2,0,0,1-.25.41,1.56,1.56,0,0,0-.43.87.11.11,0,0,0,0,.08l-.25.44a1.21,1.21,0,0,0-.22.77,1.59,1.59,0,0,0-.07.2h-.13a2.18,2.18,0,0,0-.23.09.83.83,0,0,0-.32.17,2.75,2.75,0,0,1-.53-.12,1.16,1.16,0,0,0-.69,0l-.35-.1a1,1,0,0,1-.2-.12,1.14,1.14,0,0,0-.31-1.17.12.12,0,0,0-.2.12,1.49,1.49,0,0,1,.08.4l0,0a.2.2,0,0,0-.19-.11h0l-.09,0c-.18-.09-.26-.37-.33-.57s0-.36.07-.54,0-.14,0-.2.1-.39,0-.53,0,0-.08,0-.07,0-.07,0a.14.14,0,0,1,0,.06.19.19,0,0,0,0,.08l-.06.12c-.08.22-.13.44-.19.66a1.85,1.85,0,0,0-.1.71l0,0a1,1,0,0,0-.09.25l-.07-.13-.11-.2a1,1,0,0,0-.09-.34.17.17,0,0,0-.06-.06.21.21,0,0,1,0-.08c0-.1-.14-.11-.14,0v.12l0,0a.65.65,0,0,0,0,.63l.15.23-.08-.07c-.06,0-.16,0-.11.09s.17.22.25.34a2.88,2.88,0,0,0-.34-.27.11.11,0,0,0-.15.16c.38.51.77,1.53,1.51,1.58a.14.14,0,0,0,.09,0l.18.11.08.06a2.32,2.32,0,0,0,.59.34H45l.52.23.87.6a.12.12,0,0,0,.13,0,2.66,2.66,0,0,0,2.12.23.23.23,0,0,0,.15-.31,1.64,1.64,0,0,1,.43-.24.2.2,0,0,0,.1-.24.28.28,0,0,0,.08-.15l.08-.05a.31.31,0,0,1,0,.1.58.58,0,0,0-.05.14.19.19,0,0,0,.07.23c0,.39,0,.78.05,1.17a.3.3,0,0,0,0,.1v0a.83.83,0,0,0,0,.15s-.08,0-.09,0a9.24,9.24,0,0,1-1.14,1.88,19.59,19.59,0,0,0-1.22,2.2,22.7,22.7,0,0,0-1,2.25c-.15.38-.28.76-.4,1.15s-.18.82-.29,1.22a.09.09,0,0,0-.12.06,1.08,1.08,0,0,0,.45,1.19v.05a16.73,16.73,0,0,0,1,3.59c.47,1.3.35,2.72.78,4a.16.16,0,0,0,0,.08c-.15.25-.29.49-.45.73a.33.33,0,0,0,0,.38,4.22,4.22,0,0,1-.65,1l-.05.07a.34.34,0,0,0,.27.61h0a.31.31,0,0,0,0,.1.37.37,0,0,0,.25.09v0a.14.14,0,0,0,.25.09l.1-.18.36-.14a5,5,0,0,0,.81-.38.23.23,0,0,0,.3,0c.17-.22.33-.44.48-.67a4.59,4.59,0,0,0,.48-.61.26.26,0,0,0-.08-.4.3.3,0,0,0,.16-.17c.24-.54.48-1.1.7-1.66a15.65,15.65,0,0,0,1.5-4c.1-.25.2-.5.29-.75.15-.42.68-1.51.25-1.92l0,0c0-.1,0-.19,0-.28v-.08a1.2,1.2,0,0,0,.05-.38c0-.12,0-.24,0-.35a.08.08,0,0,0,0,0l0-.05a.07.07,0,0,0-.11-.07l0,0a.71.71,0,0,0-.31-.33.88.88,0,0,0,0-.15L52,40.51c.12-.36.24-.73.33-1.11.07-.11.14-.23.22-.34a.17.17,0,0,0,.23,0,7.59,7.59,0,0,0,1.61-1.95l.21-.31.21-.24a2.17,2.17,0,0,0,.64-1.35,2.27,2.27,0,0,0,.33-.61,2.86,2.86,0,0,0,.38-.48,5.23,5.23,0,0,0,.56,0,1.83,1.83,0,0,0,.88-.41c.55-.45.92-1.18,1.64-1.39a.29.29,0,0,0,0-.52c-.34-.24-1-.54-1.06-1l0,0c-.05-.28-.2-.57-.26-.84a2.57,2.57,0,0,0-.18-.79,3.13,3.13,0,0,0-.07-.82.22.22,0,0,0-.31-.17c-.44.15-.88.27-1.31.46-.12.05-.52.2-.46.4a.11.11,0,0,0,.06.07l-.09,0a4.81,4.81,0,0,0-.17-.73v-.05l0-.2a.18.18,0,0,0,.1-.09,4.51,4.51,0,0,0,.18-1.83.17.17,0,0,0,0-.14v-.32a13.8,13.8,0,0,0,1-1.88s0,0,0,0a.09.09,0,0,1,0-.05c0-.07,0-.15.07-.23s.26-.26.4-.38.4-.31.56-.49a.37.37,0,0,0,.27-.16h.06a.08.08,0,0,0,.08-.09.36.36,0,0,0-.06-.2.15.15,0,0,0,.2-.16A6.6,6.6,0,0,0,58,20.91s0,0,0,0c.17-.31.31-.64.45-1s.22-.49.32-.74a.15.15,0,0,0,.15-.09,6.19,6.19,0,0,0,.3-1,1,1,0,0,0,.48-1,1.25,1.25,0,0,0-.13-.54l0-.05c.07-.35.12-.7.17-1.06s.11-.59.16-.88l.9.24c.74.54,1.52,1,2.23,1.57l.05,0a1.34,1.34,0,0,0,.12.24c.15.2.56.19.54-.13l0-.08a.26.26,0,0,0-.05-.28" style="fill: #1d1d1b"/>
    <path d="M92.73,24a1.15,1.15,0,0,0,.14-.17s0,.05.07.06a1,1,0,0,1-.21.11m.19-.3s0-.06,0-.08l0,0v0a.56.56,0,0,0,0,.08M86,21.6l-.13,0h0l.12,0m.1,0-.07,0,.09,0,0,0m-5.48,31h0m.73-16.91h0M69.13,42.53h0m-.21,0h0M64.4,49.88v.06l-.06,0-.17-.08.23.05m16.22-14.3h0l0,0h0l0,0m1.11,5.27,0,0h0a1.5,1.5,0,0,1,0,.2,2.07,2.07,0,0,0,0-.22M68.87,51.22v.05h0l0-.05m-.14-19h0c0,.06,0,.11,0,.16l-.06-.16m12.85,8,0,.08s0,.09,0,.14,0-.15,0-.22M67.06,48.65h0M76.44,41V41c0,.16.08.31.13.46v.15L76.44,41m17-19.81a1.09,1.09,0,0,0-1.22-.3c-.27.07-.62.27-.63.57v0l-.18.12-.14.05,0-.11v0l.07-.14c.34.1.46-.42.17-.56l-.16-.08a2,2,0,0,1-.39-.24.25.25,0,0,0-.36.06,2.29,2.29,0,0,0-.16.38c-.25.22-.34.58-.55.84l0,.06c-.16.11-.34.2-.52.3l-.41,0a2,2,0,0,0-.55-.15h0c-.13-.3-.77-.35-1-.42s-.57-.12-.86-.16a.63.63,0,0,0-.73,0h-.08a.07.07,0,0,0-.06.09l0,0a.35.35,0,0,0,0-.15,2.09,2.09,0,0,0-.47-.48L68.68,24c0,.36-.55.49-.55.49a2.2,2.2,0,0,1-.23.39.48.48,0,0,0-.1.41c0,.1.39.32.51.59s-.51.39-.51.39l-.1.6a2.81,2.81,0,0,0-.46.56,3,3,0,0,0-.24.65,1,1,0,0,0-.06.62.18.18,0,0,0,.14.11l0,.54c0,.06,0,.12,0,.18a1.55,1.55,0,0,0,0,.21h-.2c-.17,0-.23.21-.16.33a1.69,1.69,0,0,1,.17.91c-.25.17-.43.31-.43.66a2.73,2.73,0,0,0,.06.5c0,.18,0,.39.21.49l0,0h0a.19.19,0,0,0,.23-.07h0l.26-.14.08,0a.85.85,0,0,0,.22.2,3,3,0,0,1,.31,1.57c0,.61,0,1.22,0,1.84s0,1.15.08,1.72a.24.24,0,0,0-.07.12c0,.41,0,.83,0,1.24s-.06.77-.07,1.16a12.17,12.17,0,0,0,.22,2.25.12.12,0,0,0,.17.08.24.24,0,0,0,.24.1,3.52,3.52,0,0,0,.58.15c.17,0,.34.11.52.15a6.47,6.47,0,0,0,.47,1.61c-.76.45-1.59.82-2.36,1.2s-1.81.68-2.25,1.4h0a.89.89,0,0,0-.68.08,2.55,2.55,0,0,0-.71,1,2.16,2.16,0,0,0-.33.27,1,1,0,0,0-.39.51.17.17,0,0,0-.2.23c0-.1,0-.12,0,0s.06.28.18.26a2.69,2.69,0,0,0,.76.58l.75.39.24.12a.12.12,0,0,0,.19.06l0,0h0a.16.16,0,0,0,.12-.12l.25-.22a3,3,0,0,1,.65.59l.32.39a5.47,5.47,0,0,0,.51.57,2.43,2.43,0,0,1,.14.2,1.6,1.6,0,0,0,.47.56.17.17,0,0,0,.17,0,9.81,9.81,0,0,0,1.43-.09,4,4,0,0,0,.83-.21,3.51,3.51,0,0,0,.58-.14h0a.1.1,0,0,0,.16,0,.2.2,0,0,0,0-.1.17.17,0,0,0,0-.14.66.66,0,0,0-.3-.35,2,2,0,0,0-.33-.16,1,1,0,0,0-.24-.08,1.21,1.21,0,0,0-.28-.18l-.15,0a.78.78,0,0,0-.14-.79l0,0q-.15-.3-.33-.6c-.12-.22-.19-.45-.29-.68h.07l.48.07c.25,0,.52.17.77,0l0,0a.12.12,0,0,0,.18-.11,1.41,1.41,0,0,1,.15-.45.36.36,0,0,0,0-.09l.42-.49c.22-.1.45-.19.67-.27l1.41-.58c.54-.24,1-.57,1.58-.84A10.39,10.39,0,0,0,76,45.57a1.06,1.06,0,0,0,.59-.18l0,0,.23.21a1.68,1.68,0,0,0,.69.85h0a5.45,5.45,0,0,1,.29.53c.09.23.17.45.26.67a9.54,9.54,0,0,1,.58,1.86,7.08,7.08,0,0,0,.43,1.64.33.33,0,0,0,.12.14,3,3,0,0,0,.3,1.6c.18.32.62.09.64-.21a.44.44,0,0,0,.71-.07h0a.41.41,0,0,0,.7.1,4.92,4.92,0,0,0,.24-.45l.1-.06a9.11,9.11,0,0,0,1.7-1.19c.25-.21,0-.58-.31-.53a3.61,3.61,0,0,0-1.1.48V51a1.59,1.59,0,0,0,.07-.2c0-.13.11-.25.17-.37.22,0,.4-.24.49-.42a1.19,1.19,0,0,0,.1-.28.32.32,0,0,0,.15-.21.38.38,0,0,0,0-.51l0-.07a.2.2,0,0,0-.06-.07.13.13,0,0,0,0-.05L83,48.51a4.87,4.87,0,0,0,0-1.7c-.07-.78-.2-1.55-.34-2.32l-.27-1.77c0-.34-.11-.68-.17-1l0-.2c-.07-.48-.13-1-.25-1.52a6.23,6.23,0,0,0-.06-1.3s0,0,0,0l.07-.1.14-.25a1.51,1.51,0,0,0,.11-.22.25.25,0,0,0,0-.09,3.26,3.26,0,0,0-.93-2.77.12.12,0,0,0-.1,0c-.17-.11-.37-.19-.55-.29h0a.31.31,0,0,0,.09-.51,4.08,4.08,0,0,0-1-.58,1.54,1.54,0,0,0-.45-.79,1,1,0,0,0-.54-.32,3.74,3.74,0,0,0-.27-.31,5.2,5.2,0,0,0-.48-1c0-.18,0-.34,0-.51a.14.14,0,0,0,0-.11l.06-.26,0-.09,0-.15.13,0a.13.13,0,0,0,.2-.07,1.65,1.65,0,0,0,0-.63.18.18,0,0,0,.07-.15c0-.5,0-1,0-1.54,0,0,.06,0,.06,0s0,0,.11-.29,0-.19,0-.44.31-.39.15-1,.13-.35.09-.61a.4.4,0,0,1,.08-.37,1,1,0,0,0,.13-.51c0-.38.23-.39.23-.39s0,.3.35.13.62-1.05.62-1.05l.14-.31.6-.4.08.29a4.78,4.78,0,0,0,.54.86.85.85,0,0,0,.15.3l.13.16a1.94,1.94,0,0,0,.21.34c.28.34.82.75,1.27.57a.62.62,0,0,0,0,.13.11.11,0,0,0,.13.06,1.29,1.29,0,0,1,.44-.1,2.92,2.92,0,0,1,.65.15,1.8,1.8,0,0,0,.89.18.14.14,0,0,0,.21-.06c.08-.2.15-.38.36-.45a5.44,5.44,0,0,0,.54-.15.13.13,0,0,0,.08-.1c.37-.08.73-.14,1.1-.2a6.49,6.49,0,0,0,1.87-.32.1.1,0,0,0,.06-.05H90c.11,0,.22,0,.33,0a.75.75,0,0,0,.51,0c.14,0,.22,0,.36.06h.06a1.25,1.25,0,0,0,.7.06,2.71,2.71,0,0,0,.55-.12,4.2,4.2,0,0,0,.72-.17.19.19,0,0,0,.1-.28c-.06-.11,0-.32,0-.46a.59.59,0,0,1,.12-.2c.07-.12,0-.29,0-.41a.4.4,0,0,0-.15-.24s0,0,0,0l0-.05.1-.19h0a.15.15,0,0,0-.07-.14c0-.1-.06-.2-.08-.3a.37.37,0,0,0,.18-.54m-32.32-1.8-.17.15a1.46,1.46,0,0,0,.05-.2l.12.05m8.55-5.63v0h0l-.1.07a1.37,1.37,0,0,0,.13-.2.07.07,0,0,0,0,.05l0,0M79.34,6h0l0,0h0M81,5.91a2.06,2.06,0,0,0-.65-.11l0,0a1.76,1.76,0,0,1,.7.15m2.55,12.73a.14.14,0,0,1,0-.06s0,.07,0,.11ZM58.76,25.36h0l0,0,0,0m-.5-1.12v0l0,0,0,0m2.28-3.62-.21.39c.07-.13.14-.27.2-.41v0m16-8.11a.5.5,0,0,0,0-.12l.08.12h-.06m6.73-1.59h0V11a.13.13,0,0,1,0-.06m-.35,3.16a.88.88,0,0,0,0-.15,1.69,1.69,0,0,1,0,.23l0-.08m-1.57-1,0,0h0v0m.75-1.88h0v-.06l0,0,0,0m-.18-.3v0l0,0h0m1.28,0v0h0M82.82,16a1.21,1.21,0,0,1,0-.14l.12.16-.07,0M66.57,20.51a.1.1,0,0,0,0,0l0,0,.09,0m-.62.18H66l-.09,0,0,0m9-8.61a.64.64,0,0,0,0-.07l0-.06a.52.52,0,0,1,.1.11l-.06,0m5.42,3.24,0,0h.12l-.1,0m2,.07h0s0,0,0,0M62.53,22.65h0a.48.48,0,0,0,.12,0,1,1,0,0,0-.17.1.47.47,0,0,0,.05-.1M60.5,24l-.13,0,0,0,0,0a.2.2,0,0,0,.13,0m10-11h.13l0,0,0,0a.23.23,0,0,0-.12.08l-.2.16a1.55,1.55,0,0,0,.24-.28m-1.37,1.23h0l-.05,0h0l0,0M59,27.2h0m-.72-1.3a1.71,1.71,0,0,0,.53.32.11.11,0,0,0,.11,0c.06.06.12.11.18.07.28-.2,0-.57-.18-.75.18.17.36.34.55.49s.14,0,.12-.07,0,0,0-.05l.07,0a3.69,3.69,0,0,0-.5.78h0a.24.24,0,0,0-.18.17s0,0,0,.06a.3.3,0,0,0-.07.23.29.29,0,0,0,.18.21l.14,0h.1l.06,0c.08,0,.14-.05.15-.12h0a.36.36,0,0,0,.08-.09.21.21,0,0,0,0-.27.21.21,0,0,0,0-.06l0,0a2.25,2.25,0,0,0,.26-.22c.25-.27.5-.52.76-.78l.42-.43a.42.42,0,0,0,.41-.13s0,0,0,0l-.15-.1.11-.11,23-4.3a34.63,34.63,0,0,0,3.51-1,27,27,0,0,0-4,.16L62.53,23.8c.27-.27.54-.55.8-.83a2.28,2.28,0,0,0,.29-.33.29.29,0,0,0-.32-.42l0-.08a.46.46,0,0,1,.44-.09l.23.11-.12.08c-.13.1,0,.29.12.3a2.63,2.63,0,0,0,.48-.06c.18,0,.35,0,.51-.11a.24.24,0,0,0,.06-.11,1.68,1.68,0,0,0,.13-.28c.08-.18.18-.35.28-.53l0-.09a.46.46,0,0,0,.19.08c.17,0,.25-.12.22-.26A.29.29,0,0,1,66,21a1,1,0,0,1,.24-.2.88.88,0,0,1,.17.12.17.17,0,0,0,.22,0,5,5,0,0,1,.72-.56l.28-.09.11,0,.75-.24a12.29,12.29,0,0,1,.21,2.35l15.53-2.79-.08-.1c.06-.23-.12-.56-.18-.79a2.45,2.45,0,0,1-.07-1.23.2.2,0,0,0,.08-.12,2.53,2.53,0,0,0-.64-1.6,3.61,3.61,0,0,0-1.33-1.22.1.1,0,0,0-.15.1,1.65,1.65,0,0,0-.53.16,1.47,1.47,0,0,1-.62.05c-.25-.07-.49-.2-.74-.25a.46.46,0,0,0-.23,0l-.09-.22c0-.51,0-1,0-1.54a4.53,4.53,0,0,1,.41-1.75.07.07,0,0,0,.07-.09c-.06-.67-.41-1.27-.19-2a1.2,1.2,0,0,1,1.33-.73,1.49,1.49,0,0,1,.85.44,3.48,3.48,0,0,0,.4.9l0,0a.09.09,0,0,0,0,.14,0,0,0,0,1,0,0,3.1,3.1,0,0,0,.36.53l0,.06a1.55,1.55,0,0,0,0,.21,6.15,6.15,0,0,0-.85-.71c.26-.34,0-.88-.22-1.17a.9.9,0,0,0-1-.25c-1,.45-.65,1.84,0,2.46,0,0,0,0,0,0-.47.1-.8.73-.92,1.14a1.73,1.73,0,0,0,0,1.23,2.34,2.34,0,0,0,.09.33h0a.11.11,0,0,0,0,.07v0a.24.24,0,0,0,.09.22,1.91,1.91,0,0,0,2.31-.1,4.83,4.83,0,0,0,.43.58.12.12,0,0,0,.11,0l0,0a.13.13,0,0,0,0-.12,18,18,0,0,0,.49-2.94,9.16,9.16,0,0,0,.12-2.86.15.15,0,0,0,0-.08,4.22,4.22,0,0,0-1.37-2.19,1.94,1.94,0,0,0-2.13-.63,1.64,1.64,0,0,0-.38,0,1.62,1.62,0,0,0-.73.24.05.05,0,0,0,0,.09h0c-.8,0-1.39,1.19-1.56,1.83a6.56,6.56,0,0,0-.15,3,3.06,3.06,0,0,0-.3.32c-.09.1-.18.21-.28.31l-.06.06,0,0a.08.08,0,0,0-.09.1l0,0,0,0a.11.11,0,0,0,.08.17h0a1.19,1.19,0,0,1,.08.2.19.19,0,0,0,.34,0h.16a2.63,2.63,0,0,1,1.26,1.14c.26.36.51.72.75,1.09a.16.16,0,0,0,0,.11c-.5-.83-1.66-2.61-2.31-1.92a4.67,4.67,0,0,1-.54-.72c-.07-.1-.26-.07-.26.06a1.84,1.84,0,0,0,0,.53l-.21-.1a3.59,3.59,0,0,0-.9-1,.48.48,0,0,0-.68.09,1.38,1.38,0,0,0-.18,1,4.73,4.73,0,0,0-1.45-.07,4.52,4.52,0,0,0-2.3.63.14.14,0,0,0-.12,0c-.25.08-.4.38-.52.66l0-.06a.09.09,0,0,0-.14,0,5.17,5.17,0,0,0-.39.68.36.36,0,0,1,0-.11c0-.06-.1-.11-.15-.06a1.83,1.83,0,0,0-.31.5,3,3,0,0,1-.2.29.41.41,0,0,1,0-.11c0-.18-.23-.18-.3-.06-.24.36-.5.7-.77,1a1,1,0,0,0-.13-.56.07.07,0,0,0,0-.05h0a.06.06,0,0,0-.1,0c-.28.12-.48.49-.7.7a10.07,10.07,0,0,1-1.22.93c-.55.38-1.11.74-1.64,1.15a2.11,2.11,0,0,0-.52.47c-.09.13,0,.44,0,.63l-.07.06-.44.36a1.68,1.68,0,0,0-.35.4l-.1,0-.41-.23a1.88,1.88,0,0,0-.73-.26h0s0,0,0,0h0a.13.13,0,0,0-.12.18c-.37.58-.66,1.26-1,1.87a9.17,9.17,0,0,0-.89,2.18A4.68,4.68,0,0,1,58,24a.16.16,0,0,0-.1.17,6.15,6.15,0,0,1-.06.74c-.12.09-.14.24,0,.41a.53.53,0,0,1-.06.1.13.13,0,0,0,0,.16,3,3,0,0,0,.47.35" style="fill: #1d1d1b"/>
    <polygon points="21.85 44.76 21.85 82.26 57.35 77.62 57.35 40.12 21.85 44.76" style="fill: #fff"/>
    <polygon points="21.85 44.76 21.85 82.26 57.35 77.62 57.35 40.12 21.85 44.76" style="fill: none;stroke: #1d1d1b;stroke-miterlimit: 10;stroke-width: 1.375px"/>
    <path d="M22.63,47.27l34.72-4.42M22.63,79.48l34.72-4.93" style="fill: none;stroke: #1d1d1b;stroke-miterlimit: 10;stroke-width: 0.75px"/>
    <polygon points="57.35 40.12 33.13 36.54 33.13 74.04 57.35 77.62 57.35 40.12" style="fill: #cbcbce"/>
    <polygon points="57.35 40.12 33.13 36.54 33.13 74.04 57.35 77.62 57.35 40.12" style="fill: none;stroke: #1d1d1b;stroke-miterlimit: 10;stroke-width: 1.375px"/>
    <path d="M252.17,74c-61.75,11.25-157.29-11.25-219,0V36.54c61.75-11.25,157.29,11.25,219,0Z" style="fill: #fff"/>
    <path d="M252.17,39.46s-19.87,8-114-.29c-66.51-5.89-99.71-.73-104.85.17M253.05,70.42s-20.5,8.66-114.67.33c-66.51-5.89-99.71-.73-104.85.17" style="fill: none;stroke: #1d1d1b;stroke-miterlimit: 10;stroke-width: 0.75px"/>
    <path d="M252.17,74c-61.75,11.25-157.29-11.25-219,0V36.54c61.75-11.25,157.29,11.25,219,0Z" style="fill: none;stroke: #1d1d1b;stroke-miterlimit: 10;stroke-width: 1.375px"/>
    <path d="M250,18.7V92a11.78,11.78,0,0,1,2.1-3.57V22.26A11.61,11.61,0,0,1,250,18.7" style="fill: #fff"/>
    <path d="M250,18.7V92a11.78,11.78,0,0,1,2.1-3.57V22.26A11.61,11.61,0,0,1,250,18.7Z" style="fill: none;stroke: #1d1d1b;stroke-miterlimit: 10;stroke-width: 1.25px"/>
    <path d="M252.08,77.76s1.06,10.33,8.4,10.33h22s7.16-2.44,20.5-2.44M252.08,32.9s1.06-10.34,8.4-10.34h22S289.64,25,303,25" style="fill: none;stroke: #1d1d1b;stroke-miterlimit: 10;stroke-width: 1.25px"/>
    <path d="M566,77.76s-1.07,10.33-8.4,10.33h-22s-7.17-2.44-20.5-2.44M566,32.9s-1.07-10.34-8.4-10.34h-22S528.4,25,515.07,25" style="fill: none;stroke: #1d1d1b;stroke-miterlimit: 10;stroke-width: 1.25px"/>
    <path d="M274,85.65a103.93,103.93,0,0,1,17.21-1.92H526.87a103.68,103.68,0,0,1,17.2,1.92m0-60.64a103.68,103.68,0,0,1-17.2,1.92H291.18A103.93,103.93,0,0,1,274,25" style="fill: none;stroke: #1d1d1b;stroke-miterlimit: 10;stroke-width: 0.75px"/>
    <path d="M568.07,18.7V92a11.78,11.78,0,0,0-2.1-3.57V22.26a11.61,11.61,0,0,0,2.1-3.56" style="fill: #fff"/>
    <path d="M568.07,18.7V92a11.78,11.78,0,0,0-2.1-3.57V22.26A11.61,11.61,0,0,0,568.07,18.7Z" style="fill: none;stroke: #1d1d1b;stroke-miterlimit: 10;stroke-width: 1.25px"/>
    <path d="M142.66,27.15a1.75,1.75,0,1,1-1.75-1.76,1.68,1.68,0,0,1,1.75,1.76m-1.75,1.41a1.41,1.41,0,1,0-1.33-1.41,1.29,1.29,0,0,0,1.33,1.41m.43-1.16c.65-.15.52-1.15-.28-1.15h-.86v1.8h.47v-.56h.17l.43.56h.51V28Zm-.28-.72a.21.21,0,1,1,0,.41h-.39v-.41Z" style="fill: #1d1d1b"/>
    <path d="M101.86,24.68h-2v-9h2c2.58,0,4,1.65,4,4.52s-1.47,4.48-4,4.48m27.59-8v-.48a5.9,5.9,0,0,0-.95.37,4.33,4.33,0,0,1,.95.11M108,24.5l-.55.76.2-2.15a5.83,5.83,0,0,1,2-3.71c-.15,0-.32,0-.5.08l-1.93.4,1.39-1.4a7.3,7.3,0,0,1,1.73-1.14l.21-.12a8.27,8.27,0,0,0-4-4.72,9.57,9.57,0,0,0-4.3-1.05H98.68a25.63,25.63,0,0,1-5.07-.26A5.6,5.6,0,0,1,92,10.5l-.22-.14,0,.25a5.42,5.42,0,0,0,2.45,3.61c.43.32.74.62.74,1.73V26c0,1.08-.22,1.38-.72,1.68l-1.66,1-.39.23h9.14a9.53,9.53,0,0,0,5.9-1.59c.24-.16.46-.34.68-.52a7.85,7.85,0,0,1,0-2.32m17.5.24a.61.61,0,0,0,.06-.56L125,22.63l1.42.85a2.4,2.4,0,0,1,.37.28l.86-.06a4,4,0,0,1,1.83.25V19.53a2.15,2.15,0,0,0-.67.33l-.37.33-.39-.3a1.75,1.75,0,0,0-1-.3,2.34,2.34,0,0,0-1.72.76c-.25.3-.48.6-.7.9v3.51c.35.26.71.25.9,0M136,12.5a9.57,9.57,0,0,0-4.3-1.05h-3.51a25.57,25.57,0,0,1-5.07-.26,5.91,5.91,0,0,1-1.59-.68l-.21-.14,0,.25a5.5,5.5,0,0,0,2.46,3.61c.43.32.73.62.73,1.73v.73a9.25,9.25,0,0,1,1.61-.78,5,5,0,0,0-.65.7,4.33,4.33,0,0,1,1.68-.61,6.15,6.15,0,0,1,2.24,0v-.28h2c2.58,0,4.05,1.65,4.05,4.52s-1.47,4.48-4.05,4.48h-.76a3.29,3.29,0,0,1,1.1,2.41,3.21,3.21,0,0,1-.6,1.84,9.4,9.4,0,0,0,5.7-1.59,8.3,8.3,0,0,0,1.87-1.71,8.89,8.89,0,0,0,1.82-5.48A8.45,8.45,0,0,0,136,12.5" style="fill: #1d1d1b"/>
    <path d="M110.91,13.56a4.15,4.15,0,0,1,1.18-3.48,4.87,4.87,0,0,1,4-1.42A4.2,4.2,0,0,1,120.42,13a6.34,6.34,0,0,1-1.26,3.42l-.13-.13-.48-.45a9.21,9.21,0,0,1-1.39-1.47c.8-1.45.35-3.51-1.34-3.51a1.86,1.86,0,0,0-1.74,2.1,4.88,4.88,0,0,0-.34,2.13,2.59,2.59,0,0,1-1.08-1.1L112,12.47,111.55,14a2.66,2.66,0,0,0-.08,1.16h0a3.34,3.34,0,0,1-.55-1.61M109,18.9c.83-.83,2.53-1.35,2.65-1.8s-.77-1.21-1.1-1.35a5.06,5.06,0,0,1,1.82.18,2.14,2.14,0,0,1-.24-1.75c.66,1.59,3,1.84,3.6,3.16a2.55,2.55,0,0,0-1.24-1.58,3.77,3.77,0,0,1,.32-2.89c-.14,2.29,3.12,3.59,3.8,5.25-.4-1.42-1.92-2.32-2.64-3.17a2.33,2.33,0,0,1,.2-1.85c-.07,1.53,1.58,2.72,2.46,3.58a3,3,0,0,1,1.2,2.62.63.63,0,0,1,.49.66,1.29,1.29,0,0,0,.75-.69A2.77,2.77,0,0,1,119.8,22a1.06,1.06,0,0,0-.14-1c-.33-.41-1.29-.42-1.61-.39,0,0,.4-.59.24-.89s-2.07-.2-2.9.1a3.85,3.85,0,0,1,1.19.14c-.13.2-.47,1-.23,1.27s.53-.17.53-.17-.29.9-.08,1.11.65.06.65.06a2.47,2.47,0,0,1-2.12,1.19,1.63,1.63,0,0,0,.79-.86,2.09,2.09,0,0,1-.92.12,1.41,1.41,0,0,0,.58-1.44c-.22-1-1.67-1.17-2.4-.67A2.86,2.86,0,0,1,114.87,19a7.34,7.34,0,0,0-1.1-.28,4.21,4.21,0,0,1,2.22-.66,3.76,3.76,0,0,0-3.32,1,5.31,5.31,0,0,1,1.1.2,6.7,6.7,0,0,0-2.86,1.61,3.17,3.17,0,0,0,.13-1.47c-.2-.51-.82-.73-2.05-.47m9.4.11a1.85,1.85,0,0,0-1.09-1.11c.17.58.39,1.11,1.09,1.11m12.77,8.08a3,3,0,0,0-3.48-2.81A1.6,1.6,0,0,1,129,25.74c0,1.31-1.64,1.72-2.54,1.51a2.11,2.11,0,0,0-.32-3.27,1.16,1.16,0,0,1-1.93,1.21l-2.75-2.27c-.66-.53-1.42-.22-1.73-.45s-.12-1-.59-1.27-.78-.1-1.24-.25a.86.86,0,0,1-.67-.9,1.13,1.13,0,0,0,.12,1.22c.32.36.84.58,1,1s-.19,1.23,1.06,2.21c.59.46,1.51,1.23,2.11,1.75,1,.89.47,2,.6,3a2.38,2.38,0,0,0,1.67,1.92,1.76,1.76,0,0,1,0-2.4,3.16,3.16,0,0,0,2.27,2.83,3.8,3.8,0,0,0,3.77-1.15,2.59,2.59,0,0,1-2.33-.49,3.06,3.06,0,0,0,3.65-2.79m-10-.43c-.51-.46-1.28-1.1-1.87-1.56-.65,1.13-2.06,2.6-3.49,2.6-2.62,0-3.94-3.71-1-6.75a1.52,1.52,0,0,0-.39-.06,1.22,1.22,0,0,0-.66.18l-1.16.8.26-1.48.09-.23a6.51,6.51,0,0,0-1.57,1.08l-1.14,1.24.13-1.75c0-.13,0-.27.08-.39a2.08,2.08,0,0,0,.08-.76.22.22,0,0,0-.08-.09,5.63,5.63,0,0,0-2.21,3.67,1.77,1.77,0,0,1,.54-.5c.17-.06.31,0,.16.5-.07.19-1.5,4.07,1.32,6.76,0,0-.31-.79-.12-1s.21-.13.37.08.25.32.38.47h0a5.86,5.86,0,0,0,.77.73,5.77,5.77,0,0,0,3.3,1.07c3.49,0,5.34-2.41,6.37-4.43l-.16-.15m6-8.43c-2.61.13-4.85,2.35-6,3.9a2,2,0,0,1,.62.33l1,.8a14.24,14.24,0,0,1,2.08-3.3,2.78,2.78,0,0,1,3.55-.54,5.16,5.16,0,0,1,3.58-.7,5.08,5.08,0,0,0-3.46-1.61c-1.22,0-1.92.6-2.09.33s.83-.86.83-.86c-1.45.06-2.5,1.76-2.94,1.55-.26-.13.39-.95.39-.95A6.37,6.37,0,0,0,122,20.57a6.56,6.56,0,0,1,5.12-2.34m.43,6.63a1,1,0,0,1,.78.88.79.79,0,0,1-.41.69,1.87,1.87,0,0,1-.43.19,2.63,2.63,0,0,0,.12-.89c0-.56-.06-.87-.06-.87" style="fill: #1d1d1b"/>
  </g>
</svg>
