<svg id="Calque_1" data-name="Calque 1" xmlns="http://www.w3.org/2000/svg" width="67.07mm" height="229.7mm" viewBox="0 0 190.13 651.12">
  <g>
    <path d="M10,640.47h.79a8.43,8.43,0,0,0,5.39,4.34H11.65A17.46,17.46,0,0,0,10,640.47m1.79,5H66.66a1.09,1.09,0,0,0,1.9.41q1.44.6,2.91,1.14H12a13.12,13.12,0,0,0-.18-1.55M73.39,647c-1.55-.52-3.08-1.09-4.57-1.72,0,0,0-.1,0-.15A1.14,1.14,0,0,0,67.72,644a1.12,1.12,0,0,0-.86.42c-1.16-.53-2.29-1.1-3.41-1.71h63.6c-1.12.6-2.25,1.18-3.41,1.71a1.12,1.12,0,0,0-.85-.42,1.13,1.13,0,0,0-1.13,1.13.58.58,0,0,0,0,.14c-1.5.64-3,1.21-4.58,1.73Zm5,1.46h33.66a71.12,71.12,0,0,1-33.66,0M119,647q1.47-.54,2.91-1.14a1.1,1.1,0,0,0,1.91-.41h54.48a13.12,13.12,0,0,0-.18,1.55Zm59.45-2.19h-4.63a8.43,8.43,0,0,0,5.38-4.34h.89a17.06,17.06,0,0,0-1.64,4.34M6.54,637.9c2.07,2.63,4,6.08,4,9.83v.73H76a71.35,71.35,0,0,0,38.6,0h65v-.73c0-3.75,1.92-7.2,4-9.83h-1.85a20.87,20.87,0,0,0-1.26,1.94h-1.68l-.07.21c-.07.19-1.79,4.76-9.41,4.76h-45a62.49,62.49,0,0,0,7.84-4.37l-.34-.53c-1.17.76-2.37,1.48-3.58,2.17H62.29c-1.22-.69-2.43-1.42-3.6-2.19l-.35.53a63,63,0,0,0,7.87,4.39H20.71c-7.62,0-9.34-4.57-9.41-4.76l-.07-.21H9.66c-.4-.69-.83-1.33-1.27-1.94ZM180.12,10.64h-.79A8.43,8.43,0,0,0,174,6.3h4.53a16.92,16.92,0,0,0,1.64,4.34m-1.79-5H123.84a1.09,1.09,0,0,0-1.9-.41Q120.5,4.64,119,4.12h59.12a13.37,13.37,0,0,0,.18,1.55M117.11,4.12c1.55.51,3.07,1.09,4.57,1.72,0,0,0,.09,0,.14a1.12,1.12,0,0,0,2,.71c1.15.54,2.29,1.11,3.41,1.71H63.45c1.12-.6,2.25-1.17,3.41-1.7a1.08,1.08,0,0,0,.85.41A1.12,1.12,0,0,0,68.84,6a.7.7,0,0,0,0-.14c1.5-.63,3-1.21,4.58-1.72Zm-5-1.46H78.42a71.12,71.12,0,0,1,33.66,0M71.47,4.12c-1,.35-2,.73-2.91,1.14a1.13,1.13,0,0,0-.85-.4,1.1,1.1,0,0,0-1.06.81H11.79A13.37,13.37,0,0,0,12,4.12ZM11.65,6.3h4.63a8.46,8.46,0,0,0-5.39,4.34H10A17.31,17.31,0,0,0,11.65,6.3m172,7c-2.09-2.65-4-6.12-4-9.91V2.66h-65A71.31,71.31,0,0,0,76,2.66H10.54v.73c0,3.79-2,7.26-4.06,9.91H8.33c.46-.64.91-1.31,1.33-2h1.67l.08-.21c.07-.2,1.79-4.77,9.4-4.77h45.4a63.39,63.39,0,0,0-7.85,4.38l.35.53c1.17-.77,2.37-1.49,3.58-2.17h65.92c1.22.69,2.43,1.41,3.6,2.19l.35-.54a63,63,0,0,0-7.87-4.39h45.13c7.61,0,9.33,4.57,9.4,4.77l.08.21h1.57a22,22,0,0,0,1.33,2Z" style="fill: #e5e5e5"/>
    <polygon points="189.63 15.54 184.85 10.76 5.28 10.76 0.5 15.54 0.5 635.58 5.28 640.36 184.85 640.36 189.63 635.58 189.63 15.54" style="fill: none;stroke: #e3e3e3;stroke-miterlimit: 10"/>
  </g>
</svg>
