<svg id="Calque_1" data-name="Calque 1" xmlns="http://www.w3.org/2000/svg" viewBox="0 0 129 210.47"><defs><style>.cls-1{fill:#1d1d1b;}</style></defs><path class="cls-1" d="M127.63,19.05a16.24,16.24,0,0,0-1.8-3.75v-.07h0A11.28,11.28,0,0,0,120.71,11h2.71l4.21,4.21Zm0,170.19a17.86,17.86,0,0,1-1.8,4.87V16.43c.16.3.34.58.49.9a18.15,18.15,0,0,1,1.31,3.94Zm0,6.14-4.21,4.21h-2.71a11.28,11.28,0,0,0,5.07-4.26h0v-.07a16.24,16.24,0,0,0,1.8-3.75ZM10.2,199.59a10.56,10.56,0,0,1-6.28-4.28v-180A10.72,10.72,0,0,1,10.23,11H118.8a10.56,10.56,0,0,1,6.28,4.28v180a10.72,10.72,0,0,1-6.31,4.3Zm101.26,4.94h-4.37a8.22,8.22,0,0,0,4.79-3.56h.84a15.84,15.84,0,0,0-1.26,3.56m-23,2.06c.92-.34,1.84-.7,2.74-1.08a1,1,0,0,0,.8.38,1.05,1.05,0,0,0,1-.76h18.35a13.86,13.86,0,0,0-.17,1.46ZM64,209.87A93.12,93.12,0,0,1,45.13,208H81.87A83.55,83.55,0,0,1,64,209.87m-46.15-3.28a13.86,13.86,0,0,0-.17-1.46H34a1.07,1.07,0,0,0,1,.76,1,1,0,0,0,.79-.38c.91.38,1.82.74,2.74,1.08ZM16.28,201H17a8.32,8.32,0,0,0,4.8,3.56H17.54A15.84,15.84,0,0,0,16.28,201m10.83,0a62.9,62.9,0,0,0,6.5,3.56H26.08c-5.18,0-7.46-2.25-8.35-3.56Zm70,1H29.92c-.57-.32-1.13-.65-1.68-1H98.76l-1.68,1m2.8-1h11.29c-.89,1.31-3.17,3.56-8.35,3.56H93.38a60.89,60.89,0,0,0,6.5-3.56M92,203.76a1.07,1.07,0,0,0-1.07,1.07.79.79,0,0,0,0,.13c-1.41.6-2.86,1.14-4.32,1.63H40.39c-1.47-.49-2.9-1-4.32-1.63a.61.61,0,0,0,0-.13A1.06,1.06,0,0,0,35,203.76a1,1,0,0,0-.81.4c-1.09-.51-2.16-1-3.22-1.61H96c-1.06.56-2.13,1.1-3.22,1.6a1.05,1.05,0,0,0-.8-.39M5.58,199.59l-4.2-4.21v-3.87a15.79,15.79,0,0,0,1.79,3.75v.07h.05a11.33,11.33,0,0,0,5.07,4.26ZM1.38,21.32a17.49,17.49,0,0,1,1.79-4.87V194.12c-.16-.29-.34-.57-.49-.89a17.55,17.55,0,0,1-1.3-3.94Zm0-6.14L5.58,11H8.29a11.33,11.33,0,0,0-5.07,4.26H3.17v.07a15.79,15.79,0,0,0-1.79,3.75ZM17.54,5.94h4.37a8.26,8.26,0,0,0-4.85,3.65h-.83a15.55,15.55,0,0,0,1.31-3.65m21-2.06c-.92.34-1.84.7-2.74,1.08a1,1,0,0,0-.8-.38,1.05,1.05,0,0,0-1,.76H17.68a13.86,13.86,0,0,0,.17-1.46ZM64,.6c5.46,0,17.63,1.31,17.63,2.26l-34.5-.35C44.17,1.24,58.54.6,64,.6m47.15,3.28a13.86,13.86,0,0,0,.17,1.46H93A1,1,0,0,0,91.16,5q-1.35-.57-2.73-1.08Zm1.62,5.71H112a8.29,8.29,0,0,0-4.85-3.65h4.27a15.55,15.55,0,0,0,1.31,3.65M100,9.59a60.29,60.29,0,0,0-6.65-3.65h9.53c5.3,0,7.57,2.35,8.42,3.65ZM29.92,8.52H97.08L98.9,9.59H28.1l1.82-1.07M27,9.59H17.76c.86-1.3,3.12-3.65,8.42-3.65h7.43A61.07,61.07,0,0,0,27,9.59M35,6.71A1.07,1.07,0,0,0,36.1,5.64s0-.09,0-.13c1.41-.6,2.85-1.14,4.32-1.63H86.61c1.46.49,2.9,1,4.32,1.63a.5.5,0,0,0,0,.13A1.06,1.06,0,0,0,92,6.71a1,1,0,0,0,.81-.4c1.09.51,2.16,1.05,3.22,1.61H31c1.06-.56,2.13-1.1,3.22-1.6a1,1,0,0,0,.8.39m89,2.88h-9.64a13.15,13.15,0,0,1-1.84-6.4V2.51H84.19A81,81,0,0,0,64,0C57.71,0,48.59.85,42.8,2.51H16.49v.68a13.25,13.25,0,0,1-1.84,6.4H5l-5,5V196l5,5H14.7a13.22,13.22,0,0,1,1.79,6.31V208H42.81c5.78,1.66,14.9,2.51,21.19,2.51A81.13,81.13,0,0,0,84.2,208h28.31v-.68A13.11,13.11,0,0,1,114.3,201H124l5-5V14.61Z"/></svg>