<svg id="Calque_1" data-name="Calque 1" xmlns="http://www.w3.org/2000/svg" viewBox="0 0 250 137.47"><defs><style>.cls-1{fill:#1d1d1b;}</style></defs><path class="cls-1" d="M248.63,19.05a16.24,16.24,0,0,0-1.8-3.75v-.07h-.05A11.28,11.28,0,0,0,241.71,11h2.71l4.21,4.21Zm0,97.19a17.86,17.86,0,0,1-1.8,4.87V16.43c.16.3.34.58.49.9a18.15,18.15,0,0,1,1.31,3.94Zm0,6.14-4.21,4.21h-2.71a11.28,11.28,0,0,0,5.07-4.26h.05v-.07a16.24,16.24,0,0,0,1.8-3.75ZM10.2,126.59a10.56,10.56,0,0,1-6.28-4.28v-107A10.72,10.72,0,0,1,10.23,11H239.8a10.56,10.56,0,0,1,6.28,4.28v107a10.72,10.72,0,0,1-6.31,4.3Zm222.26,4.94h-4.37a8.22,8.22,0,0,0,4.79-3.56h.84a15.84,15.84,0,0,0-1.26,3.56m-50,2.06c.92-.34,1.84-.7,2.74-1.08a1,1,0,0,0,.8.38,1.05,1.05,0,0,0,1-.76h45.35a13.86,13.86,0,0,0-.17,1.46ZM127,136.87c-5.46,0-47.78-.65-52.87-1.91H175.87c-5.09,1.26-43.41,1.91-48.87,1.91M17.85,133.59a13.86,13.86,0,0,0-.17-1.46H63a1.07,1.07,0,0,0,1,.76,1,1,0,0,0,.79-.38c.91.38,1.82.74,2.74,1.08ZM16.28,128H17a8.32,8.32,0,0,0,4.8,3.56H17.54A15.84,15.84,0,0,0,16.28,128m39.83,0a62.9,62.9,0,0,0,6.5,3.56H26.08c-5.18,0-7.46-2.25-8.35-3.56Zm135,1H58.92c-.57-.32-1.13-.65-1.68-1H192.76l-1.68,1m2.8-1h38.29c-.89,1.31-3.17,3.56-8.35,3.56H187.38a60.89,60.89,0,0,0,6.5-3.56M186,130.76a1.07,1.07,0,0,0-1.07,1.07.79.79,0,0,0,0,.13c-1.41.6-2.86,1.14-4.32,1.63H69.39c-1.47-.49-2.9-1-4.32-1.63a.61.61,0,0,0,0-.13A1.06,1.06,0,0,0,64,130.76a1,1,0,0,0-.81.4c-1.09-.51-2.16-1-3.22-1.61H190c-1.06.56-2.13,1.1-3.22,1.6a1.05,1.05,0,0,0-.8-.39M5.58,126.59l-4.2-4.21v-3.87a15.79,15.79,0,0,0,1.79,3.75v.07h.05a11.33,11.33,0,0,0,5.07,4.26ZM1.38,21.32a17.49,17.49,0,0,1,1.79-4.87V121.12c-.16-.29-.34-.57-.49-.89a17.55,17.55,0,0,1-1.3-3.94Zm0-6.14L5.58,11H8.29a11.33,11.33,0,0,0-5.07,4.26H3.17v.07a15.79,15.79,0,0,0-1.79,3.75ZM17.54,5.94h4.37a8.26,8.26,0,0,0-4.85,3.65h-.83a15.55,15.55,0,0,0,1.31-3.65m50-2.06c-.92.34-1.84.7-2.74,1.08a1,1,0,0,0-.8-.38,1.05,1.05,0,0,0-1,.76H17.68a13.86,13.86,0,0,0,.17-1.46ZM127,.6c5.46,0,24.78.65,45.87,1.91H76.13C65.22,1.25,121.54.6,127,.6M232.15,3.88a13.86,13.86,0,0,0,.17,1.46H187a1,1,0,0,0-1.8-.38q-1.35-.57-2.73-1.08Zm1.62,5.71H233a8.29,8.29,0,0,0-4.85-3.65h4.27a15.55,15.55,0,0,0,1.31,3.65M194,9.59a60.29,60.29,0,0,0-6.65-3.65h36.53c5.3,0,7.57,2.35,8.42,3.65ZM58.92,8.52H191.08l1.82,1.07H57.1l1.82-1.07M56,9.59H17.76c.86-1.3,3.12-3.65,8.42-3.65H62.61A61.07,61.07,0,0,0,56,9.59M64,6.71A1.07,1.07,0,0,0,65.1,5.64s0-.09,0-.13c1.41-.6,2.85-1.14,4.32-1.63H180.61c1.46.49,2.9,1,4.32,1.63a.5.5,0,0,0,0,.13A1.06,1.06,0,0,0,186,6.71a1,1,0,0,0,.81-.4c1.09.51,2.16,1.05,3.22,1.61H60c1.06-.56,2.13-1.1,3.22-1.6a1,1,0,0,0,.8.39M245,9.59h-9.64a13.15,13.15,0,0,1-1.84-6.4V2.51H178.19C172.41.85,133.29,0,127,0S77.59.85,71.8,2.51H16.49v.68a13.25,13.25,0,0,1-1.84,6.4H5l-5,5V123l5,5H14.7a13.22,13.22,0,0,1,1.79,6.31V135H71.81c5.78,1.66,48.9,2.51,55.19,2.51s45.41-.85,51.2-2.51h55.31v-.68A13.11,13.11,0,0,1,235.3,128H245l5-5V14.61Z"/></svg>