<svg id="Calque_1" data-name="Calque 1" xmlns="http://www.w3.org/2000/svg" width="58.19mm" height="21.81mm" viewBox="0 0 164.94 61.84">
  <path d="M162.13,60.84A4.46,4.46,0,0,0,159,59.13a.91.91,0,0,0-.79-.47.94.94,0,0,0-.81.5,12.46,12.46,0,0,0-4.58,1.68H12.12a12.4,12.4,0,0,0-4.58-1.68.94.94,0,0,0-.81-.5.91.91,0,0,0-.79.47,4.48,4.48,0,0,0-3.13,1.71H1v-9A99.33,99.33,0,0,0,2.47,36.12V8.23C4.31,5.26,7.74,1,12.28,1H152.66c4.54,0,8,4.27,9.81,7.23V36.12a99.33,99.33,0,0,0,1.47,15.72v9ZM1,10.93c.11-.23.44-.93,1-1.86V36.12A91.61,91.61,0,0,1,1,48.54ZM5.41,1H8.25C4.75,2.76,2.27,6.46,1,8.73V4.78C2,4.4,5,3.14,5.41,1M159.54,1c.41,2.14,3.36,3.4,4.4,3.78v4c-1.27-2.27-3.75-6-7.25-7.73ZM163,9.07c.54.93.86,1.63,1,1.86V48.54a91.61,91.61,0,0,1-1-12.42Zm1.62-5.13c-1.14-.35-4.1-1.66-4.1-3.44V0H4.45V.5c0,1.78-3,3.09-4.1,3.44L0,4.05V61.84H3.38l.14-.25A3.31,3.31,0,0,1,6,60.13a.89.89,0,0,0,1.44,0,11.62,11.62,0,0,1,4.3,1.61l.11.07H153.09l.12-.07a11.52,11.52,0,0,1,4.29-1.61.89.89,0,0,0,1.44,0,3.35,3.35,0,0,1,2.48,1.44l.14.27h3.38V4.05Z" style="fill: #1d1d1b"/>
</svg>
